<svg width="21.000000" height="21.000000" viewBox="0 0 21 21" fill="none" xmlns="http://www.w3.org/2000/svg" xmlns:xlink="http://www.w3.org/1999/xlink">
	<desc>
			Created with Pixso.
	</desc>
	<defs>
		<clipPath id="clip264_895">
			<rect id="Outline / Money / Banknote 2" rx="-0.437500" width="20.125000" height="20.125000" transform="translate(0.437500 0.437500)" fill="white" fill-opacity="0"/>
		</clipPath>
	</defs>
	<g clip-path="url(#clip264_895)">
		<path id="Vector (Stroke)" d="M6.95 3.71L11.42 3.71C12.61 3.71 13.58 3.71 14.34 3.82C15.13 3.92 15.79 4.15 16.32 4.67C16.8 5.16 17.03 5.76 17.15 6.47C17.85 6.58 18.46 6.81 18.94 7.3C19.47 7.83 19.69 8.49 19.8 9.28C19.9 10.04 19.9 11 19.9 12.2L19.9 12.29C19.9 13.49 19.9 14.45 19.8 15.21C19.69 16 19.47 16.66 18.94 17.19C18.41 17.72 17.75 17.94 16.96 18.05C16.2 18.15 15.24 18.15 14.04 18.15L9.57 18.15C8.38 18.15 7.41 18.15 6.65 18.05C5.86 17.94 5.2 17.72 4.68 17.19C4.19 16.7 3.96 16.1 3.84 15.4C3.14 15.28 2.54 15.05 2.05 14.57C1.52 14.04 1.3 13.38 1.19 12.59C1.09 11.83 1.09 10.86 1.09 9.67L1.09 9.57C1.09 8.38 1.09 7.41 1.19 6.65C1.3 5.86 1.52 5.2 2.05 4.67C2.58 4.15 3.24 3.92 4.03 3.82C4.79 3.71 5.75 3.71 6.95 3.71ZM5.21 15.51C5.3 15.86 5.43 16.09 5.6 16.26C5.85 16.5 6.19 16.66 6.83 16.75C7.49 16.84 8.36 16.84 9.62 16.84L14 16.84C15.25 16.84 16.13 16.84 16.79 16.75C17.43 16.66 17.77 16.5 18.01 16.26C18.25 16.02 18.41 15.68 18.5 15.04C18.59 14.38 18.59 13.5 18.59 12.25C18.59 10.99 18.59 10.11 18.5 9.45C18.41 8.81 18.25 8.47 18.01 8.23C17.84 8.05 17.61 7.92 17.26 7.83C17.28 8.35 17.28 8.93 17.28 9.57L17.28 9.67C17.28 10.86 17.28 11.83 17.17 12.59C17.07 13.38 16.84 14.04 16.32 14.57C15.79 15.09 15.13 15.32 14.34 15.42C13.58 15.53 12.61 15.53 11.42 15.53L6.95 15.53C6.3 15.53 5.72 15.53 5.21 15.51ZM4.2 5.12C3.56 5.2 3.22 5.36 2.98 5.6C2.74 5.85 2.58 6.18 2.49 6.83C2.4 7.49 2.4 8.36 2.4 9.62C2.4 10.88 2.4 11.75 2.49 12.41C2.58 13.06 2.74 13.39 2.98 13.64C3.22 13.88 3.56 14.04 4.2 14.12C4.86 14.21 5.74 14.21 7 14.21L11.37 14.21C12.63 14.21 13.5 14.21 14.16 14.12C14.81 14.04 15.14 13.88 15.39 13.64C15.63 13.39 15.79 13.06 15.87 12.41C15.96 11.75 15.96 10.88 15.96 9.62C15.96 8.36 15.96 7.49 15.87 6.83C15.79 6.18 15.63 5.85 15.39 5.6C15.14 5.36 14.81 5.2 14.16 5.12C13.5 5.03 12.63 5.03 11.37 5.03L7 5.03C5.74 5.03 4.86 5.03 4.2 5.12ZM9.18 8.09C8.34 8.09 7.65 8.77 7.65 9.62C7.65 10.47 8.34 11.15 9.18 11.15C10.03 11.15 10.71 10.47 10.71 9.62C10.71 8.77 10.03 8.09 9.18 8.09ZM6.34 9.62C6.34 8.05 7.61 6.78 9.18 6.78C10.75 6.78 12.03 8.05 12.03 9.62C12.03 11.19 10.75 12.46 9.18 12.46C7.61 12.46 6.34 11.19 6.34 9.62ZM4.37 7.21C4.73 7.21 5.03 7.51 5.03 7.87L5.03 11.37C5.03 11.73 4.73 12.03 4.37 12.03C4.01 12.03 3.71 11.73 3.71 11.37L3.71 7.87C3.71 7.51 4.01 7.21 4.37 7.21ZM14 7.21C14.36 7.21 14.65 7.51 14.65 7.87L14.65 11.37C14.65 11.73 14.36 12.03 14 12.03C13.63 12.03 13.34 11.73 13.34 11.37L13.34 7.87C13.34 7.51 13.63 7.21 14 7.21Z" fill="#FFFFFF" fill-opacity="1.000000" fill-rule="evenodd"/>
	</g>
</svg>
