<svg width="70" height="69" viewBox="0 0 70 69" fill="none" xmlns="http://www.w3.org/2000/svg">
<circle opacity="0.05" cx="36.1565" cy="35.6972" r="26.3564" fill="#F7931A"/>
<circle opacity="0.02" cx="36.1564" cy="35.6972" r="22.5458" fill="#F7931A"/>
<circle cx="36.4737" cy="36.0149" r="18.4177" fill="#F9BF79"/>
<circle cx="36.4737" cy="36.0149" r="15.2422" stroke="#F7931A" stroke-width="6.35093"/>
<circle cx="36.4737" cy="36.0149" r="15.2422" stroke="#F7931A" stroke-width="6.35093"/>
<circle cx="36.4737" cy="36.0149" r="17.1475" stroke="#E77E00" stroke-width="2.54037"/>
<g filter="url(#filter0_b_1_660)">
<circle cx="36.4737" cy="36.0149" r="14.6071" fill="url(#paint0_linear_1_660)" fill-opacity="0.65"/>
</g>
<g opacity="0.36" filter="url(#filter1_f_1_660)">
<circle opacity="0.05" cx="34.8002" cy="34.3408" r="25" fill="#CB9C3A"/>
<circle opacity="0.02" cx="34.8002" cy="34.3406" r="21.3855" fill="#CB9C3A"/>
<circle cx="35.1013" cy="34.6422" r="17.4699" fill="#CB9C3A"/>
<circle cx="35.1013" cy="34.6422" r="14.4578" stroke="#CB9C3A" stroke-width="6.0241"/>
<circle cx="35.1013" cy="34.6422" r="15.6627" stroke="#CB9C3A" stroke-width="3.61446"/>
<circle cx="35.1013" cy="34.6422" r="16.2651" stroke="#CB9C3A" stroke-width="2.40964"/>
<g filter="url(#filter2_b_1_660)">
<circle cx="35.1014" cy="34.642" r="13.8554" fill="url(#paint1_linear_1_660)" fill-opacity="0.65"/>
</g>
</g>
<path d="M42.1595 34.1415C42.4102 32.4732 41.1323 31.5764 39.3851 30.9781L39.9518 28.7183L38.5676 28.3755L38.0158 30.5758C37.6524 30.4857 37.2787 30.4006 36.9074 30.3164L37.4632 28.1016L36.0801 27.7588L35.5129 30.0179C35.2118 29.9497 34.9162 29.8823 34.6293 29.8114L34.6308 29.8043L32.7224 29.3307L32.3542 30.7999C32.3542 30.7999 33.381 31.0338 33.3593 31.0483C33.9198 31.1874 34.0215 31.556 34.0041 31.8483L33.3585 34.4228C33.3972 34.4326 33.4472 34.4467 33.5024 34.4686L33.3566 34.4326L32.4512 38.039C32.3826 38.2082 32.2088 38.4621 31.817 38.3657C31.8308 38.3857 30.8111 38.1162 30.8111 38.1162L30.1241 39.6912L31.9254 40.1374C32.2604 40.2209 32.5888 40.3082 32.9116 40.3905L32.3389 42.6766L33.7211 43.0194L34.2887 40.758C34.6659 40.8599 35.0325 40.9539 35.3912 41.0425L34.8259 43.2933L36.2098 43.6361L36.7825 41.3547C39.1423 41.7986 40.9171 41.6196 41.6632 39.4984C42.2651 37.7902 41.6337 36.8049 40.3921 36.1619C41.2963 35.9539 41.9778 35.3627 42.1595 34.1415ZM38.9972 38.5487C38.5692 40.2569 35.6761 39.3339 34.7377 39.1019L35.4976 36.0738C36.4356 36.3065 39.443 36.7672 38.9972 38.5487ZM39.4249 34.1168C39.0347 35.6706 36.6264 34.8812 35.8448 34.6876L36.5338 31.9412C37.3154 32.1347 39.8316 32.4959 39.4249 34.1168Z" fill="white"/>
<g opacity="0.56" filter="url(#filter3_f_1_660)">
<path d="M42.1595 34.1415C42.4102 32.4732 41.1323 31.5764 39.3851 30.9781L39.9518 28.7183L38.5676 28.3755L38.0158 30.5758C37.6524 30.4857 37.2787 30.4006 36.9074 30.3164L37.4632 28.1016L36.0801 27.7588L35.5129 30.0179C35.2118 29.9497 34.9162 29.8823 34.6293 29.8114L34.6308 29.8043L32.7224 29.3307L32.3542 30.7999C32.3542 30.7999 33.381 31.0338 33.3593 31.0483C33.9198 31.1874 34.0215 31.556 34.0041 31.8483L33.3585 34.4228C33.3972 34.4326 33.4472 34.4467 33.5024 34.4686L33.3566 34.4326L32.4512 38.039C32.3826 38.2082 32.2088 38.4621 31.817 38.3657C31.8308 38.3857 30.8111 38.1162 30.8111 38.1162L30.1241 39.6912L31.9254 40.1374C32.2604 40.2209 32.5888 40.3082 32.9116 40.3905L32.3389 42.6766L33.7211 43.0194L34.2887 40.758C34.6659 40.8599 35.0325 40.9539 35.3912 41.0425L34.8259 43.2933L36.2098 43.6361L36.7825 41.3547C39.1423 41.7986 40.9171 41.6196 41.6632 39.4984C42.2651 37.7902 41.6337 36.8049 40.3921 36.1619C41.2963 35.9539 41.9778 35.3627 42.1595 34.1415ZM38.9972 38.5487C38.5692 40.2569 35.6761 39.3339 34.7377 39.1019L35.4976 36.0738C36.4356 36.3065 39.443 36.7672 38.9972 38.5487ZM39.4249 34.1168C39.0347 35.6706 36.6264 34.8812 35.8448 34.6876L36.5338 31.9412C37.3154 32.1347 39.8316 32.4959 39.4249 34.1168Z" fill="white"/>
</g>
<defs>
<filter id="filter0_b_1_660" x="13.6739" y="13.215" width="45.5996" height="45.5998" filterUnits="userSpaceOnUse" color-interpolation-filters="sRGB">
<feFlood flood-opacity="0" result="BackgroundImageFix"/>
<feGaussianBlur in="BackgroundImageFix" stdDeviation="4.09635"/>
<feComposite in2="SourceAlpha" operator="in" result="effect1_backgroundBlur_1_660"/>
<feBlend mode="normal" in="SourceGraphic" in2="effect1_backgroundBlur_1_660" result="shape"/>
</filter>
<filter id="filter1_f_1_660" x="0.462821" y="0.00347042" width="68.6747" height="68.6747" filterUnits="userSpaceOnUse" color-interpolation-filters="sRGB">
<feFlood flood-opacity="0" result="BackgroundImageFix"/>
<feBlend mode="normal" in="SourceGraphic" in2="BackgroundImageFix" result="shape"/>
<feGaussianBlur stdDeviation="4.66867" result="effect1_foregroundBlur_1_660"/>
</filter>
<filter id="filter2_b_1_660" x="13.4749" y="13.0155" width="43.253" height="43.2531" filterUnits="userSpaceOnUse" color-interpolation-filters="sRGB">
<feFlood flood-opacity="0" result="BackgroundImageFix"/>
<feGaussianBlur in="BackgroundImageFix" stdDeviation="3.88554"/>
<feComposite in2="SourceAlpha" operator="in" result="effect1_backgroundBlur_1_660"/>
<feBlend mode="normal" in="SourceGraphic" in2="effect1_backgroundBlur_1_660" result="shape"/>
</filter>
<filter id="filter3_f_1_660" x="27.5838" y="25.2184" width="17.1475" height="20.9582" filterUnits="userSpaceOnUse" color-interpolation-filters="sRGB">
<feFlood flood-opacity="0" result="BackgroundImageFix"/>
<feBlend mode="normal" in="SourceGraphic" in2="BackgroundImageFix" result="shape"/>
<feGaussianBlur stdDeviation="1.27019" result="effect1_foregroundBlur_1_660"/>
</filter>
<linearGradient id="paint0_linear_1_660" x1="59.4959" y1="5.86236" x2="25.5184" y2="50.29" gradientUnits="userSpaceOnUse">
<stop offset="0.444137" stop-color="#F7931A"/>
<stop offset="1" stop-color="white" stop-opacity="0"/>
</linearGradient>
<linearGradient id="paint1_linear_1_660" x1="56.9387" y1="6.04128" x2="24.7098" y2="48.1826" gradientUnits="userSpaceOnUse">
<stop offset="0.444137" stop-color="#CB9C3A"/>
<stop offset="1" stop-color="white" stop-opacity="0"/>
</linearGradient>
</defs>
</svg>
