<svg width="40.000000" height="38.000000" viewBox="0 0 40 38" fill="none" xmlns="http://www.w3.org/2000/svg" xmlns:xlink="http://www.w3.org/1999/xlink">
	<desc>
			Created with Pixso.
	</desc>
	<defs/>
	<path id="Vector" d="M36 8L28 8L28 4C28 1.78 26.22 0 24 0L16 0C13.78 0 12 1.78 12 4L12 8L4 8C1.78 8 0.02 9.78 0.02 12L0 34C0 36.22 1.78 38 4 38L36 38C38.22 38 40 36.22 40 34L40 12C40 9.78 38.22 8 36 8ZM24 8L16 8L16 4L24 4L24 8Z" fill="#FFFFFF" fill-opacity="1.000000" fill-rule="nonzero"/>
</svg>
