<svg width="17.062500" height="17.916626" viewBox="0 0 17.0625 17.9166" fill="none" xmlns="http://www.w3.org/2000/svg" xmlns:xlink="http://www.w3.org/1999/xlink">
	<desc>
			Created with Pixso.
	</desc>
	<defs/>
	<path id="Vector" d="M8.47 0L8.58 0C10.39 0 11.82 0 12.94 0.15C14.1 0.32 15.02 0.67 15.74 1.42C16.44 2.17 16.76 3.11 16.91 4.31C17.06 5.47 17.06 6.96 17.06 8.87L17.06 9.04C17.06 10.95 17.06 12.44 16.91 13.6C16.76 14.79 16.44 15.74 15.74 16.48C15.02 17.24 14.1 17.59 12.94 17.75C11.82 17.91 10.39 17.91 8.58 17.91L8.47 17.91C6.66 17.91 5.23 17.91 4.11 17.75C2.95 17.59 2.03 17.24 1.32 16.48C0.61 15.74 0.3 14.79 0.14 13.6C0 12.44 0 10.95 0 9.04L0 8.87C0 6.96 0 5.47 0.14 4.31C0.3 3.11 0.61 2.17 1.32 1.42C2.03 0.67 2.95 0.32 4.11 0.15C5.23 0 6.66 0 8.47 0ZM4.3 1.39C3.32 1.53 2.73 1.79 2.29 2.26C1.85 2.73 1.58 3.38 1.45 4.46C1.31 5.54 1.31 6.97 1.31 8.95C1.31 10.93 1.31 12.36 1.45 13.45C1.58 14.53 1.85 15.18 2.29 15.65C2.73 16.11 3.32 16.38 4.3 16.52C5.32 16.66 6.65 16.66 8.53 16.66C10.4 16.66 11.74 16.66 12.75 16.52C13.74 16.38 14.32 16.11 14.76 15.65C15.21 15.18 15.47 14.53 15.61 13.45C15.74 12.36 15.75 10.93 15.75 8.95C15.75 6.97 15.74 5.54 15.61 4.46C15.47 3.38 15.21 2.73 14.76 2.26C14.32 1.79 13.74 1.53 12.75 1.39C11.74 1.25 10.4 1.25 8.53 1.25C6.65 1.25 5.32 1.25 4.3 1.39ZM5.83 3.33C5.85 3.33 5.88 3.33 5.9 3.33L11.15 3.33C11.18 3.33 11.2 3.33 11.22 3.33C11.56 3.33 11.85 3.33 12.1 3.39C12.78 3.57 13.31 4.07 13.49 4.72C13.55 4.94 13.56 5.19 13.56 5.48C13.56 5.51 13.56 5.53 13.56 5.55C13.56 5.57 13.56 5.6 13.56 5.62C13.56 5.64 13.56 5.67 13.56 5.69C13.56 5.71 13.56 5.73 13.56 5.76C13.56 6.05 13.55 6.3 13.49 6.52C13.31 7.17 12.78 7.67 12.1 7.85C11.85 7.91 11.56 7.91 11.22 7.91C11.2 7.91 11.18 7.91 11.15 7.91L5.9 7.91C5.88 7.91 5.85 7.91 5.83 7.91L5.83 7.91C5.49 7.91 5.21 7.91 4.95 7.85C4.27 7.67 3.74 7.17 3.56 6.52C3.5 6.3 3.49 6.05 3.49 5.76C3.49 5.73 3.49 5.71 3.49 5.69C3.5 5.67 3.5 5.64 3.5 5.62C3.5 5.6 3.5 5.57 3.49 5.55C3.49 5.53 3.49 5.51 3.49 5.48C3.49 5.19 3.5 4.94 3.56 4.72C3.74 4.07 4.27 3.57 4.95 3.39C5.21 3.33 5.49 3.33 5.83 3.33ZM5.9 4.58C5.45 4.58 5.36 4.58 5.29 4.6C5.07 4.66 4.89 4.83 4.83 5.04C4.81 5.1 4.81 5.19 4.81 5.62C4.81 6.05 4.81 6.14 4.83 6.2C4.89 6.41 5.07 6.58 5.29 6.64C5.36 6.66 5.45 6.66 5.9 6.66L11.15 6.66C11.6 6.66 11.7 6.66 11.76 6.64C11.99 6.58 12.16 6.41 12.22 6.2C12.24 6.14 12.25 6.05 12.25 5.62C12.25 5.19 12.24 5.1 12.22 5.04C12.16 4.83 11.99 4.66 11.76 4.6C11.7 4.58 11.6 4.58 11.15 4.58L5.9 4.58ZM5.9 9.79C5.9 10.25 5.51 10.62 5.03 10.62C4.54 10.62 4.15 10.25 4.15 9.79C4.15 9.33 4.54 8.95 5.03 8.95C5.51 8.95 5.9 9.33 5.9 9.79ZM9.4 9.79C9.4 10.25 9.01 10.62 8.53 10.62C8.04 10.62 7.65 10.25 7.65 9.79C7.65 9.33 8.04 8.95 8.53 8.95C9.01 8.95 9.4 9.33 9.4 9.79ZM12.9 9.79C12.9 10.25 12.51 10.62 12.03 10.62C11.54 10.62 11.15 10.25 11.15 9.79C11.15 9.33 11.54 8.95 12.03 8.95C12.51 8.95 12.9 9.33 12.9 9.79ZM5.9 13.12C5.9 13.58 5.51 13.95 5.03 13.95C4.54 13.95 4.15 13.58 4.15 13.12C4.15 12.66 4.54 12.29 5.03 12.29C5.51 12.29 5.9 12.66 5.9 13.12ZM9.4 13.12C9.4 13.58 9.01 13.95 8.53 13.95C8.04 13.95 7.65 13.58 7.65 13.12C7.65 12.66 8.04 12.29 8.53 12.29C9.01 12.29 9.4 12.66 9.4 13.12ZM12.9 13.12C12.9 13.58 12.51 13.95 12.03 13.95C11.54 13.95 11.15 13.58 11.15 13.12C11.15 12.66 11.54 12.29 12.03 12.29C12.51 12.29 12.9 12.66 12.9 13.12Z" fill="#FFFFFF" fill-opacity="1.000000" fill-rule="evenodd"/>
</svg>
