<svg width="19.911011" height="18.915527" viewBox="0 0 19.911 18.9155" fill="none" xmlns="http://www.w3.org/2000/svg" xmlns:xlink="http://www.w3.org/1999/xlink">
	<desc>
			Created with Pixso.
	</desc>
	<defs/>
	<path id="Vector" d="M9.9 0L10 0C10.83 0 11.52 0 12.08 0.07C12.66 0.14 13.18 0.3 13.6 0.7C14.03 1.1 14.2 1.6 14.28 2.16C14.33 2.54 14.34 3 14.35 3.54C14.95 3.55 15.48 3.59 15.96 3.65C17.05 3.79 17.92 4.08 18.62 4.74C19.31 5.4 19.62 6.23 19.76 7.26C19.91 8.27 19.91 9.55 19.91 11.16L19.91 11.26C19.91 12.88 19.91 14.16 19.76 15.16C19.62 16.19 19.31 17.03 18.62 17.69C17.92 18.34 17.05 18.64 15.96 18.78C14.91 18.91 13.56 18.91 11.86 18.91L8.05 18.91C6.34 18.91 5 18.91 3.94 18.78C2.86 18.64 1.98 18.34 1.28 17.69C0.59 17.03 0.28 16.19 0.14 15.16C0 14.16 0 12.88 0 11.26L0 11.16C0 9.55 0 8.27 0.14 7.26C0.28 6.23 0.59 5.4 1.28 4.74C1.98 4.08 2.86 3.79 3.94 3.65C4.42 3.59 4.95 3.55 5.55 3.54C5.56 3 5.57 2.54 5.63 2.16C5.7 1.6 5.88 1.1 6.3 0.7C6.72 0.3 7.24 0.14 7.83 0.07C8.38 0 9.07 0 9.9 0ZM6.94 3.52C7.29 3.51 7.66 3.51 8.05 3.51L11.86 3.51C12.24 3.51 12.61 3.51 12.96 3.52C12.95 3.01 12.94 2.64 12.9 2.33C12.84 1.93 12.74 1.75 12.62 1.64C12.5 1.52 12.32 1.43 11.89 1.37C11.44 1.32 10.84 1.31 9.95 1.31C9.06 1.31 8.46 1.32 8.01 1.37C7.58 1.43 7.4 1.52 7.28 1.64C7.16 1.75 7.06 1.93 7 2.33C6.96 2.64 6.95 3.01 6.94 3.52ZM4.13 4.96C3.19 5.08 2.66 5.3 2.27 5.67C1.87 6.04 1.64 6.55 1.51 7.44C1.39 8.34 1.38 9.53 1.38 11.21C1.38 12.89 1.39 14.08 1.51 14.99C1.64 15.87 1.87 16.38 2.27 16.75C2.66 17.13 3.19 17.35 4.13 17.47C5.08 17.59 6.33 17.59 8.1 17.59L11.8 17.59C13.57 17.59 14.82 17.59 15.77 17.47C16.71 17.35 17.24 17.13 17.64 16.75C18.03 16.38 18.26 15.87 18.39 14.99C18.52 14.08 18.52 12.89 18.52 11.21C18.52 9.53 18.52 8.34 18.39 7.44C18.26 6.55 18.03 6.04 17.64 5.67C17.24 5.3 16.71 5.08 15.77 4.96C14.82 4.84 13.57 4.83 11.8 4.83L8.1 4.83C6.33 4.83 5.08 4.84 4.13 4.96ZM6.25 7.69C6.76 7.69 7.17 7.3 7.17 6.81C7.17 6.33 6.76 5.93 6.25 5.93C5.73 5.93 5.32 6.33 5.32 6.81C5.32 7.3 5.73 7.69 6.25 7.69ZM14.58 6.81C14.58 7.3 14.17 7.69 13.65 7.69C13.14 7.69 12.73 7.3 12.73 6.81C12.73 6.33 13.14 5.93 13.65 5.93C14.17 5.93 14.58 6.33 14.58 6.81Z" fill="#FFFFFF" fill-opacity="1.000000" fill-rule="evenodd"/>
</svg>
