<svg width="26.992065" height="26.993408" viewBox="0 0 26.9921 26.9934" fill="none" xmlns="http://www.w3.org/2000/svg" xmlns:xlink="http://www.w3.org/1999/xlink">
	<desc>
			Created with Pixso.
	</desc>
	<defs/>
	<path id="Vector" d="M6.42 10.19L2.18 14.44C1.49 15.11 0.94 15.92 0.57 16.81C0.19 17.71 0 18.66 0 19.63C-0.01 20.6 0.18 21.56 0.55 22.45C0.92 23.34 1.46 24.16 2.14 24.84C2.83 25.52 3.64 26.07 4.53 26.43C5.43 26.8 6.39 26.99 7.35 26.99C8.32 26.99 9.28 26.79 10.17 26.42C11.06 26.04 11.87 25.49 12.55 24.81L13.96 23.39C14.15 23.21 14.31 22.99 14.41 22.74C14.52 22.5 14.57 22.24 14.57 21.97C14.58 21.71 14.52 21.44 14.42 21.2C14.32 20.95 14.18 20.73 13.99 20.54C13.8 20.35 13.58 20.2 13.33 20.1C13.09 20 12.82 19.95 12.56 19.95C12.29 19.96 12.03 20.01 11.78 20.12C11.54 20.22 11.32 20.37 11.14 20.56L9.72 21.98C9.09 22.6 8.25 22.95 7.36 22.94C6.48 22.94 5.64 22.59 5.02 21.97C4.39 21.34 4.04 20.5 4.04 19.62C4.04 18.74 4.39 17.89 5.01 17.26L9.25 13.02C9.71 12.56 10.29 12.25 10.92 12.11C11.56 11.98 12.22 12.04 12.82 12.27C13.04 12.36 13.24 12.45 13.43 12.54L14.05 12.82C14.87 13.2 15.51 13.36 16.32 12.55C17.48 11.39 17.18 10.31 15.76 9.34C14.35 8.36 12.64 7.92 10.94 8.07C9.23 8.23 7.63 8.98 6.42 10.19ZM14.43 2.18L13.02 3.59C12.66 3.97 12.45 4.47 12.46 5C12.46 5.52 12.67 6.03 13.04 6.4C13.41 6.77 13.92 6.98 14.44 6.98C14.96 6.99 15.47 6.79 15.85 6.42L17.26 5.01C17.57 4.69 17.94 4.44 18.34 4.26C18.75 4.09 19.19 3.99 19.63 3.99C20.07 3.99 20.51 4.07 20.92 4.24C21.33 4.41 21.7 4.65 22.02 4.97C22.33 5.28 22.58 5.65 22.74 6.06C22.91 6.47 23 6.91 22.99 7.35C22.99 7.79 22.9 8.23 22.72 8.64C22.55 9.05 22.29 9.41 21.98 9.72L17.73 13.96C17.28 14.42 16.69 14.74 16.06 14.87C15.42 15 14.76 14.95 14.16 14.71C13.94 14.62 13.74 14.54 13.55 14.45L12.93 14.16C12.11 13.79 11.47 13.63 10.66 14.43C9.5 15.6 9.8 16.67 11.22 17.65C12.63 18.62 14.34 19.06 16.05 18.91C17.75 18.75 19.35 18 20.56 16.79L24.8 12.55C25.49 11.87 26.04 11.06 26.41 10.17C26.79 9.28 26.98 8.32 26.99 7.35C26.99 6.39 26.8 5.43 26.43 4.53C26.06 3.64 25.52 2.83 24.84 2.14C24.16 1.46 23.34 0.92 22.45 0.55C21.55 0.18 20.6 -0.01 19.63 0C18.66 0 17.71 0.19 16.81 0.57C15.92 0.94 15.11 1.49 14.43 2.18Z" fill="#283F88" fill-opacity="1.000000" fill-rule="nonzero"/>
</svg>
