<svg width="27" height="27" viewBox="0 0 27 27" fill="none" xmlns="http://www.w3.org/2000/svg">
<path fill-rule="evenodd" clip-rule="evenodd" d="M20.6404 6.90356C20.197 6.46022 19.4782 6.46022 19.0349 6.90356L13.7368 12.2017L8.43869 6.90359C7.99536 6.46026 7.27656 6.46026 6.83322 6.90359C6.38988 7.34693 6.38988 8.06573 6.83322 8.50907L12.1313 13.8072L6.99385 18.9446C6.55051 19.3879 6.55051 20.1067 6.99385 20.5501C7.43719 20.9934 8.15599 20.9934 8.59933 20.5501L13.7368 15.4126L18.8743 20.5501C19.3176 20.9935 20.0364 20.9935 20.4797 20.5501C20.9231 20.1068 20.9231 19.388 20.4797 18.9446L15.3423 13.8072L20.6404 8.50903C21.0837 8.06569 21.0837 7.3469 20.6404 6.90356Z" fill="white"/>
<path fill-rule="evenodd" clip-rule="evenodd" d="M20.6404 6.90356C20.197 6.46022 19.4782 6.46022 19.0349 6.90356L13.7368 12.2017L8.43869 6.90359C7.99536 6.46026 7.27656 6.46026 6.83322 6.90359C6.38988 7.34693 6.38988 8.06573 6.83322 8.50907L12.1313 13.8072L6.99385 18.9446C6.55051 19.3879 6.55051 20.1067 6.99385 20.5501C7.43719 20.9934 8.15599 20.9934 8.59933 20.5501L13.7368 15.4126L18.8743 20.5501C19.3176 20.9935 20.0364 20.9935 20.4797 20.5501C20.9231 20.1068 20.9231 19.388 20.4797 18.9446L15.3423 13.8072L20.6404 8.50903C21.0837 8.06569 21.0837 7.3469 20.6404 6.90356Z" fill="white"/>
</svg>
