<svg width="18" height="17" viewBox="0 0 18 17" fill="none" xmlns="http://www.w3.org/2000/svg">
<path fill-rule="evenodd" clip-rule="evenodd" d="M8.77502 0.278219C13.3476 0.278219 17.0544 3.97468 17.0544 8.5345C17.0544 13.0943 13.3476 16.7908 8.77502 16.7908C4.20243 16.7908 0.495605 13.0943 0.495605 8.5345C0.495605 3.97468 4.20243 0.278219 8.77502 0.278219ZM9.80995 11.6306C9.80995 12.2006 9.3466 12.6626 8.77502 12.6626C8.20345 12.6626 7.7401 12.2006 7.7401 11.6306L7.7401 7.92994L6.40205 9.26425C5.99788 9.66729 5.3426 9.66729 4.93844 9.26425C4.53427 8.86122 4.53427 8.20777 4.93844 7.80474L8.04322 4.70863C8.44738 4.3056 9.10266 4.3056 9.50683 4.70863L12.6116 7.80474C13.0158 8.20777 13.0158 8.86122 12.6116 9.26425C12.2074 9.66729 11.5522 9.66729 11.148 9.26425L9.80995 7.92994V11.6306Z" fill="white"/>
</svg>
