<svg width="39" height="39" viewBox="0 0 39 39" fill="none" xmlns="http://www.w3.org/2000/svg">
<path d="M7.79462 16.66C7.78884 16.6644 7.7838 16.6693 7.77793 16.6735L6.63214 15.0948L8.21086 13.9489L21.0491 4.63114L24.9627 10.0234L25.6059 9.81464L21.2171 3.76758L5.77637 14.9742L7.50405 17.3546H8.29864L7.79462 16.66Z" fill="#59A264"/>
<path d="M22.182 6.19134C22.1818 6.19143 22.1816 6.19162 22.1814 6.19171L22.1947 6.21005C21.3314 6.83661 20.1279 6.65179 19.4899 5.80171C19.4813 5.79519 19.4733 5.78795 19.4664 5.77979L8.21116 13.9487C8.83973 14.8148 8.65197 16.0234 7.79492 16.6598L8.29903 17.3543H9.28706L8.62858 15.326L13.4453 13.7624C13.2421 12.6659 13.6397 11.5224 14.5692 10.8478C15.8778 9.89802 17.7441 10.2376 18.7376 11.6064C18.823 11.7242 18.8985 11.8458 18.9656 11.9702L24.8595 10.0568C24.8862 10.0352 24.9116 10.0126 24.9397 9.99213L24.9624 10.0234L24.9631 10.0231L22.182 6.19134Z" fill="#89C36B"/>
<path d="M14.5683 10.8481C13.6389 11.5227 13.2413 12.6662 13.4444 13.7627L18.9647 11.9705C18.8977 11.8462 18.8221 11.7244 18.7367 11.6068C17.7432 10.2379 15.877 9.89825 14.5683 10.8481Z" fill="#4E9656"/>
<path d="M8.21056 13.9487L6.63184 15.0946L7.77763 16.6733C7.7835 16.6691 7.78854 16.6642 7.79432 16.6599C8.65138 16.0235 8.83913 14.8149 8.21056 13.9487Z" fill="#4E9656"/>
<path d="M22.1943 6.21016L21.0484 4.63135L19.4697 5.77723C20.1025 6.64914 21.3224 6.84295 22.1943 6.21016Z" fill="#4E9656"/>
<path d="M24.9616 10.0235L24.8588 10.057L18.9648 11.9704L13.4446 13.7625L8.62793 15.3263L9.2864 17.3545H9.94002L9.40454 15.7052L9.4249 15.6986L24.4919 10.8071L26.3474 10.2048L26.348 10.2046L28.6692 17.3545H29.3454L26.7743 9.43506L25.6055 9.81461L24.9624 10.0234L24.9616 10.0235Z" fill="#5FBD72"/>
<path d="M28.4004 16.5271C28.4006 16.527 28.4008 16.5268 28.4011 16.5267L26.9398 12.0259C26.9396 12.0259 26.9394 12.0259 26.9391 12.026L26.9502 12.0601C25.9255 12.3928 24.8251 11.8318 24.4924 10.8071L11.2481 15.1067L11.2604 15.1027C11.5417 15.9691 11.184 16.8895 10.4473 17.3544H16.2957C16.1113 15.9334 16.9109 14.5561 18.2651 14.1165C19.8031 13.6171 21.4733 14.5165 21.9955 16.1252C22.1288 16.5356 22.1739 16.9526 22.1425 17.3544H27.3247C27.5585 16.9656 27.9278 16.656 28.3931 16.5049L28.4004 16.5271Z" fill="#96CD81"/>
<path d="M21.9951 16.1251C21.4729 14.5164 19.8027 13.6171 18.2647 14.1164C16.9105 14.556 16.1109 15.9333 16.2953 17.3543H22.1421C22.1735 16.9525 22.1284 16.5356 21.9951 16.1251Z" fill="#5FBD72"/>
<path d="M11.2602 15.1025L9.42515 15.6983L9.40479 15.7049L9.94026 17.3542H10.4472C11.1837 16.8895 11.5415 15.9689 11.2602 15.1025Z" fill="#4E9656"/>
<path d="M27.3242 17.3543H28.6684L28.3926 16.5049C27.9273 16.6559 27.558 16.9656 27.3242 17.3543Z" fill="#4E9656"/>
<path d="M26.95 12.06L26.3476 10.2046L24.4922 10.8069C24.8249 11.8317 25.9253 12.3927 26.95 12.06Z" fill="#4E9656"/>
<path d="M31.8793 17.3545H6.54099C5.93966 17.3545 5.44775 17.8465 5.44775 18.4478V23.4319V23.4224C5.91875 23.8859 6.41148 24.3291 6.92356 24.7483V19.445C6.92347 19.1072 7.06225 18.799 7.28394 18.5778C7.50517 18.3561 7.81336 18.2173 8.15127 18.2174H30.2692C30.607 18.2173 30.9152 18.3561 31.1364 18.5778C31.3581 18.799 31.4969 19.1072 31.4968 19.445V22.6924H32.4582C32.6439 22.6924 32.8191 22.7395 32.9727 22.8221V18.4479C32.9727 17.8465 32.4807 17.3545 31.8793 17.3545Z" fill="#63342F"/>
<path d="M30.7498 18.9645C30.6251 18.8402 30.4562 18.7643 30.269 18.7642H8.15125C7.96414 18.7643 7.79519 18.8401 7.67054 18.9645C7.54625 19.0891 7.47031 19.2581 7.47021 19.4452V25.18C8.45109 25.9297 9.497 26.5909 10.5951 27.1364C13.3116 28.4858 16.3062 29.15 19.3125 29.4276C20.8165 29.5665 22.3305 29.613 23.8405 29.5897C23.8858 29.5889 23.9312 29.5881 23.9765 29.5874C23.4318 29.5266 23.0044 29.0616 23.0044 28.5013V23.7858C23.0044 23.1844 23.4964 22.6925 24.0976 22.6925H30.95V19.4452C30.95 19.2582 30.8741 19.0891 30.7498 18.9645Z" fill="#63342F"/>
<path d="M19.3125 29.4272C16.3062 29.1497 13.3116 28.4854 10.5951 27.136C9.497 26.5906 8.45109 25.9293 7.47021 25.1797V33.1422C7.47031 33.3293 7.54616 33.4982 7.67054 33.6229C7.79519 33.7472 7.96414 33.8231 8.15125 33.8232H30.2691C30.4563 33.8231 30.6252 33.7473 30.7499 33.6229C30.8741 33.4982 30.9501 33.3293 30.9502 33.1422V29.5943H24.0977C24.0567 29.5943 24.0163 29.5915 23.9765 29.5871C23.9312 29.5879 23.8858 29.5887 23.8405 29.5894C22.3305 29.6126 20.8165 29.5661 19.3125 29.4272Z" fill="#4A2121"/>
<path d="M31.4968 29.5945V33.1424C31.4969 33.4803 31.3581 33.7884 31.1364 34.0097C30.9152 34.2314 30.6069 34.3701 30.2692 34.3701H8.15127C7.81345 34.3701 7.50527 34.2313 7.28394 34.0097C7.06234 33.7884 6.92347 33.4803 6.92356 33.1424V24.7483C6.41148 24.3291 5.91875 23.8859 5.44775 23.4224V34.1396C5.44775 34.4769 5.60258 34.7798 5.84473 34.9806C5.88509 35.0141 5.92783 35.0448 5.97277 35.0723C6.01762 35.0998 6.06468 35.1242 6.11347 35.1451C6.12081 35.1482 6.12852 35.1507 6.13604 35.1537C6.26161 35.2043 6.39809 35.2329 6.54117 35.2329H31.8795C31.9923 35.2329 32.1012 35.2155 32.2038 35.1835C32.6481 35.0446 32.9729 34.6282 32.9729 34.1396V29.4647C32.8192 29.5473 32.6441 29.5945 32.4584 29.5945H31.4968Z" fill="#4A2121"/>
<path d="M31.1367 18.5777C30.9154 18.356 30.6071 18.2172 30.2694 18.2173H8.15153C7.81372 18.2172 7.50553 18.356 7.2842 18.5777C7.0626 18.7989 6.92374 19.1071 6.92383 19.4449V24.7482V33.1423C6.92374 33.4801 7.06251 33.7883 7.2842 34.0096C7.50544 34.2312 7.81363 34.37 8.15153 34.3699H30.2694C30.6072 34.37 30.9154 34.2312 31.1367 34.0096C31.3583 33.7883 31.4971 33.4801 31.497 33.1423V29.5944H30.9504V33.1423C30.9503 33.3294 30.8744 33.4984 30.75 33.623C30.6254 33.7473 30.4564 33.8233 30.2693 33.8234H8.15153C7.96442 33.8233 7.79546 33.7474 7.67081 33.623C7.54653 33.4984 7.47058 33.3294 7.47049 33.1423V25.1798V19.445C7.47058 19.2579 7.54644 19.0889 7.67081 18.9643C7.79546 18.84 7.96442 18.764 8.15153 18.7639H30.2694C30.4565 18.764 30.6255 18.8399 30.7501 18.9643C30.8744 19.0889 30.9504 19.2579 30.9505 19.445V22.6923H31.4971V19.445C31.497 19.1072 31.3583 18.7989 31.1367 18.5777Z" fill="#2C0B10"/>
<path d="M32.9731 22.8222C32.8194 22.7395 32.6443 22.6924 32.4586 22.6924H31.4972H30.9505H24.0981C23.4968 22.6924 23.0049 23.1844 23.0049 23.7856V28.5012C23.0049 29.0616 23.4322 29.5265 23.977 29.5873C24.0169 29.5917 24.0572 29.5945 24.0982 29.5945H30.9506H31.4973H32.4587C32.6444 29.5945 32.8196 29.5473 32.9732 29.4647C33.3168 29.2799 33.5519 28.9167 33.5519 28.5011V23.7856C33.5518 23.3701 33.3167 23.007 32.9731 22.8222Z" fill="#804946"/>
<path d="M26.8874 26.1978C26.7786 26.8954 26.177 27.4297 25.4489 27.4297C24.7204 27.4297 24.1184 26.8946 24.0103 26.1963C23.9912 26.3183 23.9857 26.4442 23.9991 26.5728C24.0823 27.3735 24.7989 27.9552 25.5996 27.8721C26.4004 27.7889 26.9821 27.0722 26.8989 26.2715C26.8963 26.2465 26.8913 26.2224 26.8874 26.1978Z" fill="#4A2121"/>
<path d="M25.4489 27.43C26.177 27.43 26.7786 26.8958 26.8873 26.1982C26.8988 26.1245 26.9066 26.0493 26.9066 25.9724C26.9066 25.1673 26.2539 24.5146 25.4489 24.5146C24.6438 24.5146 23.9912 25.1673 23.9912 25.9724C23.9912 26.0489 23.9988 26.1234 24.0102 26.1967C24.1182 26.8949 24.7202 27.43 25.4489 27.43Z" fill="#F2A635"/>
</svg>
