<svg width="70" height="70" viewBox="0 0 70 70" fill="none" xmlns="http://www.w3.org/2000/svg">
<circle opacity="0.05" cx="36.1037" cy="36.1703" r="26.3564" fill="#627EEA"/>
<circle opacity="0.02" cx="36.1039" cy="36.1703" r="22.5458" fill="#627EEA"/>
<circle cx="36.4217" cy="36.488" r="18.4177" fill="#627EEA"/>
<circle cx="36.4217" cy="36.488" r="15.2422" stroke="#627EEA" stroke-width="6.35093"/>
<circle cx="36.4217" cy="36.488" r="15.2422" stroke="#627EEA" stroke-width="6.35093"/>
<circle cx="36.4217" cy="36.488" r="17.1475" stroke="#334485" stroke-width="2.54037"/>
<g filter="url(#filter0_b_1_704)">
<circle cx="36.4217" cy="36.488" r="14.6071" fill="url(#paint0_linear_1_704)" fill-opacity="0.65"/>
</g>
<g opacity="0.36" filter="url(#filter1_f_1_704)">
<circle opacity="0.05" cx="34.7473" cy="34.814" r="25" fill="#78F2BC"/>
<circle opacity="0.02" cx="34.7473" cy="34.8138" r="21.3855" fill="#78F2BC"/>
<circle cx="35.0485" cy="35.1154" r="17.4699" fill="#78F2BC"/>
<circle cx="35.0485" cy="35.1154" r="14.4578" stroke="#79F1B8" stroke-width="6.0241"/>
<circle cx="35.0485" cy="35.1154" r="15.6627" stroke="#28B691" stroke-width="3.61446"/>
<circle cx="35.0485" cy="35.1154" r="16.2651" stroke="#31978A" stroke-width="2.40964"/>
<g filter="url(#filter2_b_1_704)">
<circle cx="35.0485" cy="35.1152" r="13.8554" fill="url(#paint1_linear_1_704)" fill-opacity="0.65"/>
</g>
</g>
<path d="M36.4199 27.5967V34.3566L42.1335 36.9097L36.4199 27.5967Z" fill="white" fill-opacity="0.602"/>
<path d="M36.4193 27.5967L30.705 36.9097L36.4193 34.3566V27.5967Z" fill="white"/>
<path d="M36.4199 41.2903V45.8836L42.1373 37.9736L36.4199 41.2903Z" fill="white" fill-opacity="0.602"/>
<path d="M36.4194 45.8836V41.2896L30.7051 37.9736L36.4194 45.8836Z" fill="white"/>
<path d="M36.4199 40.2274L42.1335 36.9099L36.4199 34.3584V40.2274Z" fill="white" fill-opacity="0.2"/>
<path d="M30.7051 36.9099L36.4194 40.2274V34.3584L30.7051 36.9099Z" fill="white" fill-opacity="0.602"/>
<g opacity="0.62" filter="url(#filter3_f_1_704)">
<path d="M36.4199 27.5967V34.3566L42.1335 36.9097L36.4199 27.5967Z" fill="white" fill-opacity="0.602"/>
<path d="M36.4193 27.5967L30.705 36.9097L36.4193 34.3566V27.5967Z" fill="white"/>
<path d="M36.4199 41.2903V45.8836L42.1373 37.9736L36.4199 41.2903Z" fill="white" fill-opacity="0.602"/>
<path d="M36.4194 45.8836V41.2896L30.7051 37.9736L36.4194 45.8836Z" fill="white"/>
<path d="M36.4199 40.2274L42.1335 36.9099L36.4199 34.3584V40.2274Z" fill="white" fill-opacity="0.2"/>
<path d="M30.7051 36.9099L36.4194 40.2274V34.3584L30.7051 36.9099Z" fill="white" fill-opacity="0.602"/>
</g>
<defs>
<filter id="filter0_b_1_704" x="13.6219" y="13.6882" width="45.5997" height="45.5998" filterUnits="userSpaceOnUse" color-interpolation-filters="sRGB">
<feFlood flood-opacity="0" result="BackgroundImageFix"/>
<feGaussianBlur in="BackgroundImageFix" stdDeviation="4.09635"/>
<feComposite in2="SourceAlpha" operator="in" result="effect1_backgroundBlur_1_704"/>
<feBlend mode="normal" in="SourceGraphic" in2="effect1_backgroundBlur_1_704" result="shape"/>
</filter>
<filter id="filter1_f_1_704" x="0.409965" y="0.476615" width="68.6747" height="68.6747" filterUnits="userSpaceOnUse" color-interpolation-filters="sRGB">
<feFlood flood-opacity="0" result="BackgroundImageFix"/>
<feBlend mode="normal" in="SourceGraphic" in2="BackgroundImageFix" result="shape"/>
<feGaussianBlur stdDeviation="4.66867" result="effect1_foregroundBlur_1_704"/>
</filter>
<filter id="filter2_b_1_704" x="13.422" y="13.4887" width="43.253" height="43.2531" filterUnits="userSpaceOnUse" color-interpolation-filters="sRGB">
<feFlood flood-opacity="0" result="BackgroundImageFix"/>
<feGaussianBlur in="BackgroundImageFix" stdDeviation="3.88554"/>
<feComposite in2="SourceAlpha" operator="in" result="effect1_backgroundBlur_1_704"/>
<feBlend mode="normal" in="SourceGraphic" in2="effect1_backgroundBlur_1_704" result="shape"/>
</filter>
<filter id="filter3_f_1_704" x="28.1646" y="25.0563" width="16.5131" height="23.3679" filterUnits="userSpaceOnUse" color-interpolation-filters="sRGB">
<feFlood flood-opacity="0" result="BackgroundImageFix"/>
<feBlend mode="normal" in="SourceGraphic" in2="BackgroundImageFix" result="shape"/>
<feGaussianBlur stdDeviation="1.27019" result="effect1_foregroundBlur_1_704"/>
</filter>
<linearGradient id="paint0_linear_1_704" x1="59.4439" y1="6.33551" x2="25.4664" y2="50.7632" gradientUnits="userSpaceOnUse">
<stop offset="0.444137" stop-color="#869FFE"/>
<stop offset="1" stop-color="white" stop-opacity="0"/>
</linearGradient>
<linearGradient id="paint1_linear_1_704" x1="56.8859" y1="6.51442" x2="24.657" y2="48.6557" gradientUnits="userSpaceOnUse">
<stop offset="0.444137" stop-color="#24B594"/>
<stop offset="1" stop-color="white" stop-opacity="0"/>
</linearGradient>
</defs>
</svg>
