<svg width="30" height="30" viewBox="0 0 30 30" fill="none" xmlns="http://www.w3.org/2000/svg">
<path d="M23.7539 7.28909C22.6279 6.16296 21.2903 5.27055 19.8182 4.66319C18.346 4.05582 16.7683 3.74549 15.1758 3.75003H15.082C13.4747 3.73921 11.881 4.04647 10.3929 4.6541C8.90474 5.26173 7.55151 6.15774 6.41109 7.29053C5.27067 8.42333 4.36561 9.77052 3.748 11.2546C3.1304 12.7386 2.81246 14.3301 2.8125 15.9375V22.5C2.81558 23.245 3.11289 23.9586 3.63967 24.4854C4.16645 25.0121 4.88003 25.3094 5.625 25.3125H7.5C8.24497 25.3094 8.95855 25.0121 9.48533 24.4854C10.0121 23.9586 10.3094 23.245 10.3125 22.5V17.8125C10.3094 17.0676 10.0121 16.354 9.48533 15.8272C8.95855 15.3004 8.24497 15.0031 7.5 15H4.73438C4.96415 12.4225 6.15677 10.0261 8.07453 8.28861C9.99229 6.55112 12.4944 5.60007 15.082 5.62503H15.0938C17.6799 5.60551 20.179 6.55843 22.0956 8.29487C24.0122 10.0313 25.2064 12.4245 25.4414 15H22.6758C21.9299 15 21.2145 15.2963 20.687 15.8238C20.1596 16.3512 19.8633 17.0666 19.8633 17.8125V22.5C19.8633 23.246 20.1596 23.9613 20.687 24.4888C21.2145 25.0162 21.9299 25.3125 22.6758 25.3125H24.5508C25.2958 25.3094 26.0093 25.0121 26.5361 24.4854C27.0629 23.9586 27.3602 23.245 27.3633 22.5V15.9375C27.3653 14.3286 27.0473 12.7354 26.4276 11.2506C25.8079 9.76586 24.8991 8.41921 23.7539 7.28909Z" fill="white"/>
</svg>
