<svg width="43.000061" height="39.500000" viewBox="0 0 43.0001 39.5" fill="none" xmlns="http://www.w3.org/2000/svg" xmlns:xlink="http://www.w3.org/1999/xlink">
	<desc>
			Created with Pixso.
	</desc>
	<defs/>
	<path id="Vector" d="M34.5 0L29.5 0C28.94 0 28.5 0.44 28.5 1L28.5 1.11L35.5 6.71L35.5 1C35.5 0.44 35.05 0 34.5 0Z" fill="#FFFFFF" fill-opacity="1.000000" fill-rule="nonzero"/>
	<path id="Vector" d="M19 13C19 11.61 20.11 10.5 21.5 10.5C22.88 10.5 24 11.61 24 13C24 14.38 22.88 15.5 21.5 15.5C20.11 15.5 19 14.38 19 13Z" fill="#FFFFFF" fill-opacity="1.000000" fill-rule="evenodd"/>
	<path id="Vector" d="M39 15.92L40.56 17.17C41.2 17.68 42.15 17.58 42.67 16.93C43.18 16.29 43.08 15.34 42.43 14.82L26.18 1.82C23.44 -0.37 19.55 -0.37 16.81 1.82L0.56 14.82C-0.09 15.34 -0.19 16.29 0.32 16.93C0.84 17.58 1.79 17.68 2.43 17.17L4 15.92L4 36.5L1.5 36.5C0.67 36.5 6.1e-5 37.17 6.1e-5 38C6.1e-5 38.82 0.67 39.5 1.5 39.5L41.5 39.5C42.32 39.5 43 38.82 43 38C43 37.17 42.32 36.5 41.5 36.5L39 36.5L39 15.92ZM16 13C16 9.96 18.46 7.5 21.5 7.5C24.53 7.5 27 9.96 27 13C27 16.03 24.53 18.5 21.5 18.5C18.46 18.5 16 16.03 16 13ZM21.59 20.5C22.92 20.5 24.07 20.49 24.99 20.62C25.97 20.75 26.91 21.05 27.68 21.81C28.44 22.58 28.74 23.52 28.87 24.5C28.99 25.36 28.99 26.42 29 27.65C29 27.73 29 27.81 29 27.9L29 36.5L26 36.5L26 28C26 26.54 25.99 25.6 25.9 24.9C25.81 24.25 25.67 24.05 25.56 23.93C25.44 23.82 25.24 23.68 24.59 23.59C23.89 23.5 22.95 23.5 21.5 23.5C20.04 23.5 19.1 23.5 18.4 23.59C17.75 23.68 17.55 23.82 17.43 23.93C17.32 24.05 17.18 24.25 17.09 24.9C17 25.6 17 26.54 17 28L17 36.5L14 36.5L14 27.9C14 26.57 13.99 25.42 14.12 24.5C14.25 23.52 14.55 22.58 15.31 21.81C16.08 21.05 17.02 20.75 18 20.62C18.92 20.49 20.07 20.5 21.4 20.5L21.59 20.5Z" fill="#FFFFFF" fill-opacity="1.000000" fill-rule="evenodd"/>
	<path id="Vector" d="M19 13C19 11.61 20.11 10.5 21.5 10.5C22.88 10.5 24 11.61 24 13C24 14.38 22.88 15.5 21.5 15.5C20.11 15.5 19 14.38 19 13Z" fill="#FFFFFF" fill-opacity="1.000000" fill-rule="evenodd"/>
</svg>
