<svg width="79" height="77" viewBox="0 0 79 77" fill="none" xmlns="http://www.w3.org/2000/svg">
<circle cx="25.5953" cy="25.5953" r="25.5953" transform="matrix(-1 0 0 1 65.1891 14)" fill="#225132"/>
<g filter="url(#filter0_f_106_48)">
<path d="M51.5409 37.3438C51.5409 36.7678 51.3121 36.2153 50.9048 35.808C50.4974 35.4006 49.945 35.1718 49.3689 35.1718H42.5054L43.548 30.2088C43.5697 30.1002 43.5806 29.9807 43.5806 29.8613C43.5806 29.416 43.3959 29.0033 43.1027 28.7101L41.9516 27.5698L34.8057 34.7157C34.4039 35.1175 34.165 35.6605 34.165 36.2578V47.1178C34.165 47.6938 34.3938 48.2463 34.8011 48.6536C35.2085 49.0609 35.7609 49.2898 36.337 49.2898H46.1109C47.0123 49.2898 47.7834 48.7468 48.1092 47.9649L51.3889 40.3086C51.4866 40.0588 51.5409 39.7982 51.5409 39.5158V37.3438ZM27.649 49.2898H31.993V36.2578H27.649V49.2898Z" fill="#42E483"/>
</g>
<path d="M56.8483 39.125L47.2802 29.5569M56.8483 39.125L47.2802 48.6932M56.8483 39.125H22.403" stroke="#42E483" stroke-width="5.10294" stroke-linecap="round" stroke-linejoin="round"/>
<defs>
<filter id="filter0_f_106_48" x="0.858568" y="0.779406" width="77.4728" height="75.3008" filterUnits="userSpaceOnUse" color-interpolation-filters="sRGB">
<feFlood flood-opacity="0" result="BackgroundImageFix"/>
<feBlend mode="normal" in="SourceGraphic" in2="BackgroundImageFix" result="shape"/>
<feGaussianBlur stdDeviation="13.3952" result="effect1_foregroundBlur_106_48"/>
</filter>
</defs>
</svg>
