<svg width="16.558838" height="16.512573" viewBox="0 0 16.5588 16.5126" fill="none" xmlns="http://www.w3.org/2000/svg" xmlns:xlink="http://www.w3.org/1999/xlink">
	<desc>
			Created with Pixso.
	</desc>
	<defs/>
	<path id="Icon" d="M8.27 16.51C12.85 16.51 16.55 12.81 16.55 8.25C16.55 3.69 12.85 0 8.27 0C3.7 0 0 3.69 0 8.25C0 12.81 3.7 16.51 8.27 16.51ZM9.31 5.16C9.31 4.59 8.85 4.12 8.27 4.12C7.7 4.12 7.24 4.59 7.24 5.16L7.24 8.86L5.9 7.52C5.5 7.12 4.84 7.12 4.44 7.52C4.03 7.92 4.03 8.58 4.44 8.98L7.54 12.08C7.95 12.48 8.6 12.48 9.01 12.08L12.11 8.98C12.52 8.58 12.52 7.92 12.11 7.52C11.71 7.12 11.05 7.12 10.65 7.52L9.31 8.86L9.31 5.16Z" fill="#FFFFFF" fill-opacity="1.000000" fill-rule="evenodd"/>
</svg>
