<svg width="18.333332" height="14.166626" viewBox="0 0 18.3333 14.1666" fill="none" xmlns="http://www.w3.org/2000/svg" xmlns:xlink="http://www.w3.org/1999/xlink">
	<desc>
			Created with Pixso.
	</desc>
	<defs/>
	<path id="Vector" d="M10.4 0.37C12.09 0.77 13.44 2.01 13.9 3.61L14.54 3.22C16.19 2.24 18.33 3.37 18.33 5.22L18.33 9.24C18.33 10.99 16.39 12.13 14.75 11.35L13.79 10.89C13.24 12.32 11.97 13.42 10.4 13.79C8.27 14.28 6.03 14.29 3.91 13.79C2.15 13.38 0.8 12.06 0.41 10.39L0.35 10.16C-0.12 8.13 -0.12 6.03 0.35 4L0.41 3.77C0.8 2.09 2.15 0.78 3.91 0.37C6.03 -0.13 8.27 -0.13 10.4 0.37ZM14.15 9.45C14.42 8.02 14.45 6.55 14.22 5.11L15.35 4.45C15.99 4.07 16.81 4.5 16.81 5.22L16.81 9.24C16.81 9.92 16.06 10.36 15.43 10.06L14.15 9.45Z" fill="#FFFFFF" fill-opacity="1.000000" fill-rule="evenodd"/>
</svg>
