<svg width="35" height="35" viewBox="0 0 35 35" fill="none" xmlns="http://www.w3.org/2000/svg">
<circle cx="17.5" cy="17.5" r="17.5" fill="#18264D"/>
<path d="M26.1272 12.4531C26.0417 12.3998 25.9441 12.3691 25.8434 12.3639C25.7428 12.3587 25.6425 12.3792 25.552 12.4235C22.3658 13.9821 20.0902 13.2517 17.6848 12.4814C15.1547 11.6761 12.5422 10.8411 8.92699 12.606C8.82715 12.6548 8.74299 12.7306 8.68408 12.8248C8.62517 12.919 8.59387 13.0278 8.59375 13.1389V22.04C8.59374 22.1407 8.61935 22.2398 8.66819 22.3279C8.71703 22.416 8.78749 22.4903 8.87293 22.5436C8.95837 22.597 9.05599 22.6278 9.15659 22.633C9.2572 22.6383 9.35748 22.6178 9.44801 22.5736C12.6342 21.015 14.9098 21.7453 17.3189 22.5157C18.7469 22.9722 20.2016 23.4375 21.8462 23.4375C23.1146 23.4375 24.4981 23.1614 26.07 22.394C26.1699 22.3453 26.254 22.2695 26.313 22.1753C26.3719 22.0811 26.4032 21.9722 26.4033 21.8611V12.9601C26.4042 12.8591 26.3793 12.7595 26.331 12.6708C26.2827 12.5821 26.2125 12.5072 26.1272 12.4531ZM11.5625 19.2813C11.5625 19.4387 11.4999 19.5898 11.3886 19.7011C11.2772 19.8125 11.1262 19.875 10.9688 19.875C10.8113 19.875 10.6603 19.8125 10.5489 19.7011C10.4376 19.5898 10.375 19.4387 10.375 19.2813V14.5313C10.375 14.3738 10.4376 14.2228 10.5489 14.1114C10.6603 14.0001 10.8113 13.9375 10.9688 13.9375C11.1262 13.9375 11.2772 14.0001 11.3886 14.1114C11.4999 14.2228 11.5625 14.3738 11.5625 14.5313V19.2813ZM17.5 19.875C17.0303 19.875 16.5711 19.7357 16.1805 19.4748C15.79 19.2138 15.4855 18.8429 15.3058 18.4089C15.126 17.9749 15.079 17.4974 15.1706 17.0367C15.2623 16.576 15.4885 16.1528 15.8206 15.8206C16.1528 15.4885 16.576 15.2623 17.0367 15.1707C17.4974 15.079 17.9749 15.1261 18.4089 15.3058C18.8428 15.4856 19.2138 15.79 19.4747 16.1805C19.7357 16.5711 19.875 17.0303 19.875 17.5C19.875 18.1299 19.6248 18.734 19.1794 19.1794C18.734 19.6248 18.1299 19.875 17.5 19.875ZM24.625 20.4688C24.625 20.6262 24.5624 20.7773 24.4511 20.8886C24.3397 21 24.1887 21.0625 24.0312 21.0625C23.8738 21.0625 23.7228 21 23.6114 20.8886C23.5001 20.7773 23.4375 20.6262 23.4375 20.4688V15.7188C23.4375 15.5613 23.5001 15.4103 23.6114 15.2989C23.7228 15.1876 23.8738 15.125 24.0312 15.125C24.1887 15.125 24.3397 15.1876 24.4511 15.2989C24.5624 15.4103 24.625 15.5613 24.625 15.7188V20.4688Z" fill="white"/>
</svg>
