<svg width="32.734192" height="35.916504" viewBox="0 0 32.7342 35.9165" fill="none" xmlns="http://www.w3.org/2000/svg" xmlns:xlink="http://www.w3.org/1999/xlink">
	<desc>
			Created with Pixso.
	</desc>
	<defs/>
	<path id="Union" d="M28.6408 12.739L28.6408 14.0203C28.6408 15.5581 29.0793 17.0615 29.9012 18.3411L31.9152 21.4763C33.7547 24.3403 32.3503 28.2332 29.1509 29.1387C27.9965 29.4656 26.8334 29.7473 25.6639 29.9839Q25.556 30.2351 25.4337 30.479Q24.9934 31.3572 24.3663 32.1418Q24.0551 32.5312 23.7079 32.885Q23.0218 33.5845 22.1948 34.1455Q21.6897 34.488 21.1512 34.7661Q20.3501 35.1797 19.4751 35.4502Q18.939 35.616 18.3915 35.7229Q17.3983 35.9165 16.3672 35.9165Q15.3361 35.9165 14.3428 35.7229Q13.7953 35.616 13.2593 35.4502Q12.3842 35.1797 11.5831 34.7661Q11.0446 34.488 10.5396 34.1455Q9.71265 33.5845 9.02655 32.8853Q8.67932 32.5312 8.3681 32.1418Q7.74097 31.3572 7.30066 30.4788Q7.17834 30.2351 7.0705 29.9839C5.901 29.7473 4.73773 29.4656 3.58325 29.1387C0.383789 28.2332 -1.02051 24.3403 0.819031 21.4763L2.83295 18.3411C3.65479 17.0615 4.09338 15.5581 4.09338 14.0203L4.09338 12.739C4.09338 5.70337 9.5885 0 16.3671 0C23.1457 0 28.6408 5.70337 28.6408 12.739ZM10.597 30.5588Q10.7352 30.7241 10.8829 30.8801Q11.4149 31.4429 12.071 31.8882Q12.408 32.1167 12.7657 32.3062Q13.3843 32.6338 14.0649 32.8442Q14.405 32.9492 14.7518 33.0222Q15.5419 33.1887 16.3672 33.1887Q17.1924 33.1887 17.9825 33.0222Q18.3293 32.9492 18.6694 32.8442Q19.3501 32.6338 19.9687 32.3062Q20.3264 32.1167 20.6633 31.8882Q21.3195 31.4429 21.8514 30.8804Q21.9992 30.7241 22.1374 30.5588C18.3043 31.0347 14.4301 31.0347 10.597 30.5588Z" clip-rule="evenodd" fill="#FFFFFF" fill-opacity="1.000000" fill-rule="evenodd"/>
</svg>
