<svg width="15.412598" height="15.412598" viewBox="0 0 15.4126 15.4126" fill="none" xmlns="http://www.w3.org/2000/svg" xmlns:xlink="http://www.w3.org/1999/xlink">
	<desc>
			Created with Pixso.
	</desc>
	<defs/>
	<path id="Union" d="M14.6094 6.90332C14.166 6.45996 13.4473 6.45996 13.0039 6.90332L7.70557 12.2017L2.40771 6.90381C1.96436 6.46045 1.24561 6.46045 0.802246 6.90381C0.358887 7.34717 0.358887 8.06592 0.802246 8.50928L6.86377 14.5708C6.93896 14.646 7.02148 14.708 7.10938 14.7573C7.54785 15.0352 8.13574 14.9824 8.51807 14.6001L14.6094 8.50879C15.0527 8.06543 15.0527 7.34668 14.6094 6.90332Z" clip-rule="evenodd" fill="#FFFFFF" fill-opacity="1.000000" fill-rule="evenodd"/>
	<path id="Union" d="M14.6094 6.90332C14.166 6.45996 13.4473 6.45996 13.0039 6.90332L7.70557 12.2017L2.40771 6.90381C1.96436 6.46045 1.24561 6.46045 0.802246 6.90381C0.358887 7.34717 0.358887 8.06592 0.802246 8.50928L6.86377 14.5708C6.93896 14.646 7.02148 14.708 7.10938 14.7573C7.54785 15.0352 8.13574 14.9824 8.51807 14.6001L14.6094 8.50879C15.0527 8.06543 15.0527 7.34668 14.6094 6.90332Z" clip-rule="evenodd" fill="#FFFFFF" fill-opacity="1.000000" fill-rule="evenodd"/>
</svg>
