<svg width="24.000000" height="24.000000" viewBox="0 0 24 24" fill="none" xmlns="http://www.w3.org/2000/svg" xmlns:xlink="http://www.w3.org/1999/xlink">
	<desc>
			Created with Pixso.
	</desc>
	<defs>
		<clipPath id="clip264_867">
			<rect id="Outline / Money / Card" rx="-0.500000" width="23.000000" height="23.000000" transform="translate(0.500000 0.500000)" fill="white" fill-opacity="0"/>
		</clipPath>
	</defs>
	<g clip-path="url(#clip264_867)">
		<path id="Vector (Stroke)" d="M9.94 3.25L14.05 3.25C15.89 3.25 17.34 3.25 18.48 3.4C19.66 3.56 20.61 3.89 21.35 4.64C22.1 5.38 22.43 6.33 22.59 7.51C22.68 8.18 22.72 8.96 22.73 9.87C22.74 9.91 22.75 9.95 22.75 10C22.75 10.03 22.74 10.06 22.74 10.1C22.75 10.66 22.75 11.28 22.75 11.94L22.75 12.05C22.75 13.89 22.75 15.34 22.59 16.48C22.43 17.66 22.1 18.61 21.35 19.35C20.61 20.1 19.66 20.43 18.48 20.59C17.34 20.75 15.89 20.75 14.05 20.75L9.94 20.75C8.1 20.75 6.65 20.75 5.51 20.59C4.33 20.43 3.38 20.1 2.64 19.35C1.89 18.61 1.56 17.66 1.4 16.48C1.25 15.34 1.25 13.89 1.25 12.05L1.25 11.94C1.25 11.28 1.25 10.66 1.25 10.1C1.25 10.06 1.25 10.03 1.25 10C1.25 9.95 1.25 9.91 1.26 9.87C1.27 8.96 1.31 8.18 1.4 7.51C1.56 6.33 1.89 5.38 2.64 4.64C3.38 3.89 4.33 3.56 5.51 3.4C6.65 3.25 8.1 3.25 9.94 3.25ZM2.75 10.75C2.75 11.13 2.75 11.55 2.75 12C2.75 13.9 2.75 15.26 2.88 16.28C3.02 17.29 3.27 17.87 3.7 18.29C4.12 18.72 4.7 18.97 5.71 19.11C6.73 19.24 8.09 19.25 10 19.25L14 19.25C15.9 19.25 17.26 19.24 18.28 19.11C19.29 18.97 19.87 18.72 20.29 18.29C20.72 17.87 20.97 17.29 21.11 16.28C21.24 15.26 21.25 13.9 21.25 12C21.25 11.55 21.25 11.13 21.24 10.75L2.75 10.75ZM21.22 9.25L2.77 9.25C2.79 8.66 2.83 8.15 2.88 7.71C3.02 6.7 3.27 6.12 3.7 5.7C4.12 5.27 4.7 5.02 5.71 4.88C6.73 4.75 8.09 4.75 10 4.75L14 4.75C15.9 4.75 17.26 4.75 18.28 4.88C19.29 5.02 19.87 5.27 20.29 5.7C20.72 6.12 20.97 6.7 21.11 7.71C21.16 8.15 21.2 8.66 21.22 9.25ZM5.25 16C5.25 15.58 5.58 15.25 6 15.25L10 15.25C10.41 15.25 10.75 15.58 10.75 16C10.75 16.41 10.41 16.75 10 16.75L6 16.75C5.58 16.75 5.25 16.41 5.25 16ZM11.75 16C11.75 15.58 12.08 15.25 12.5 15.25L14 15.25C14.41 15.25 14.75 15.58 14.75 16C14.75 16.41 14.41 16.75 14 16.75L12.5 16.75C12.08 16.75 11.75 16.41 11.75 16Z" fill="#FFFFFF" fill-opacity="1.000000" fill-rule="evenodd"/>
	</g>
</svg>
