<svg width="43.000244" height="33.075195" viewBox="0 0 43.0002 33.0752" fill="none" xmlns="http://www.w3.org/2000/svg" xmlns:xlink="http://www.w3.org/1999/xlink">
	<desc>
			Created with Pixso.
	</desc>
	<defs/>
	<path id="Vector" d="M3.32 8.73C3.06 11.94 5.34 14.75 8.5 15.13C8.51 15.13 8.51 15.13 8.53 15.13L8.58 15.13C8.68 15.13 8.78 15.13 8.86 15.17C10.47 15.25 11.94 14.74 13.05 13.79C11.34 12.27 10.37 9.99 10.57 7.51C10.68 6.17 11.14 4.95 11.84 3.9C11.21 3.59 10.48 3.39 9.74 3.32C6.5 3.04 3.6 5.46 3.32 8.73Z" fill="#FFFFFF" fill-opacity="1.000000" fill-rule="nonzero"/>
	<path id="Vector" d="M0.01 24.03C0.15 25.63 1.17 27.02 2.89 27.97C4.54 28.88 6.63 29.31 8.7 29.26C7.5 28.18 6.81 26.84 6.68 25.42C6.51 23.37 7.49 21.4 9.44 19.83C10.55 18.95 11.84 18.26 13.24 17.75C9.59 16.69 4.99 17.4 2.16 19.68C0.64 20.9 -0.14 22.44 0.01 24.03Z" fill="#FFFFFF" fill-opacity="1.000000" fill-rule="nonzero"/>
	<path id="Vector" d="M21.49 0C17.16 0 13.64 3.52 13.64 7.85C13.64 12.1 16.96 15.54 21.3 15.69C21.43 15.67 21.56 15.67 21.66 15.69C21.69 15.69 21.71 15.69 21.74 15.69C21.76 15.69 21.76 15.69 21.78 15.69C26.01 15.54 29.33 12.1 29.35 7.85C29.35 3.52 25.83 0 21.49 0Z" fill="#FFFFFF" fill-opacity="1.000000" fill-rule="nonzero"/>
	<path id="Vector" d="M29.9 20.09C25.28 17.01 17.76 17.01 13.11 20.09C11.01 21.49 9.85 23.4 9.85 25.43C9.85 27.46 11.01 29.35 13.09 30.74C15.41 32.29 18.45 33.07 21.49 33.07C24.54 33.07 27.58 32.29 29.9 30.74C31.98 29.33 33.14 27.45 33.14 25.4C33.12 23.36 31.98 21.48 29.9 20.09Z" fill="#FFFFFF" fill-opacity="1.000000" fill-rule="nonzero"/>
	<path id="Vector" d="M39.67 8.83C39.93 12.03 37.65 14.85 34.49 15.23C34.48 15.23 34.48 15.23 34.46 15.23L34.41 15.23C34.31 15.23 34.21 15.23 34.13 15.26C32.52 15.34 31.05 14.83 29.95 13.89C31.65 12.37 32.62 10.08 32.43 7.6C32.31 6.26 31.85 5.04 31.15 4C31.78 3.68 32.51 3.48 33.25 3.42C36.49 3.14 39.39 5.55 39.67 8.83Z" fill="#FFFFFF" fill-opacity="1.000000" fill-rule="nonzero"/>
	<path id="Vector" d="M42.98 24.12C42.84 25.73 41.82 27.12 40.1 28.06C38.45 28.97 36.36 29.4 34.29 29.35C35.49 28.27 36.18 26.93 36.31 25.51C36.48 23.46 35.5 21.49 33.55 19.92C32.44 19.05 31.15 18.35 29.75 17.84C33.4 16.78 38 17.49 40.83 19.77C42.35 21 43.13 22.54 42.98 24.12Z" fill="#FFFFFF" fill-opacity="1.000000" fill-rule="nonzero"/>
</svg>
