<svg width="16.500000" height="16.500000" viewBox="0 0 16.5 16.5" fill="none" xmlns="http://www.w3.org/2000/svg" xmlns:xlink="http://www.w3.org/1999/xlink">
	<desc>
			Created with Pixso.
	</desc>
	<defs/>
	<path id="Subtract" d="M8.25 5.04C8.52 5.04 8.75 5.27 8.75 5.55L8.75 7.97L10.55 9.17C10.78 9.33 10.84 9.64 10.69 9.87C10.53 10.11 10.22 10.17 9.99 10.01L8.11 8.77C7.88 8.61 7.74 8.35 7.74 8.06L7.74 5.55C7.74 5.27 7.97 5.04 8.25 5.04Z" fill="#FAFF00" fill-opacity="1.000000" fill-rule="nonzero"/>
	<path id="Subtract" d="M1 8.25C1 12.25 4.24 15.5 8.25 15.5C12.25 15.5 15.5 12.25 15.5 8.25C15.5 4.24 12.25 1 8.25 1C4.24 1 1 4.24 1 8.25ZM8.75 5.55L8.75 7.97L10.55 9.17C10.78 9.33 10.84 9.64 10.69 9.87C10.53 10.11 10.22 10.17 9.99 10.01L8.11 8.77C7.88 8.61 7.74 8.35 7.74 8.06L7.74 5.55C7.74 5.27 7.97 5.04 8.25 5.04C8.52 5.04 8.75 5.27 8.75 5.55Z" stroke="#FAFF00" stroke-opacity="1.000000" stroke-width="0.966667"/>
	<path id="Subtract" d="M1 8.25C1 12.25 4.24 15.5 8.25 15.5C12.25 15.5 15.5 12.25 15.5 8.25C15.5 4.24 12.25 1 8.25 1C4.24 1 1 4.24 1 8.25Z" stroke="#FAFF00" stroke-opacity="1.000000" stroke-width="2.000000"/>
</svg>
