  <svg width="67" height="210" viewBox="0 0 67 210" fill="none" xmlns="http://www.w3.org/2000/svg">
  <g filter="url(#filter0_b_106_186)">
  <path d="M110.148 222.116C108.648 222.345 107.133 222.534 105.604 222.679C105.587 222.494 105.423 222.358 105.237 222.375C104.802 222.414 104.366 222.451 103.929 222.483C103.491 222.516 103.054 222.545 102.618 222.571C102.432 222.582 102.29 222.741 102.301 222.927C100.768 223.011 99.2414 223.051 97.7239 223.048C97.7246 222.861 97.5746 222.71 97.3883 222.709C96.514 222.703 95.6426 222.683 94.7744 222.65C94.5883 222.642 94.4315 222.787 94.4239 222.973C92.8911 222.907 91.3681 222.797 89.8563 222.645C89.8753 222.46 89.7409 222.294 89.5557 222.275C88.6867 222.184 87.8215 222.078 86.9604 221.959C86.7759 221.934 86.6057 222.062 86.5797 222.247C85.0624 222.03 83.5576 221.771 82.0667 221.469C82.1039 221.287 81.9865 221.109 81.8042 221.071C80.9489 220.894 80.0983 220.704 79.2526 220.5C79.0716 220.456 78.8894 220.567 78.8454 220.748C77.3584 220.383 75.8867 219.976 74.4316 219.528C74.4868 219.35 74.3876 219.161 74.2099 219.106C73.3766 218.845 72.5489 218.572 71.7269 218.285C71.5511 218.223 71.3589 218.316 71.2972 218.492C69.8549 217.981 68.4307 217.431 67.0259 216.841C67.0983 216.669 67.0183 216.472 66.8469 216.399C66.0436 216.058 65.2468 215.703 64.4567 215.337C64.2878 215.258 64.0873 215.332 64.0086 215.5C62.6248 214.851 61.2617 214.163 59.9208 213.437C60.0097 213.274 59.9495 213.069 59.7861 212.98C59.0205 212.561 58.2622 212.131 57.5115 211.688C57.3511 211.593 57.1444 211.647 57.0495 211.807C55.7369 211.025 54.4478 210.207 53.1836 209.353C53.2881 209.199 53.2482 208.99 53.0943 208.885C52.3734 208.394 51.6608 207.891 50.9567 207.377C50.8063 207.267 50.5954 207.3 50.4854 207.45C49.2561 206.544 48.0529 205.604 46.8774 204.631C46.9964 204.488 46.9771 204.275 46.8342 204.156C46.1649 203.597 45.5046 203.027 44.8537 202.447C44.7148 202.323 44.5017 202.335 44.3775 202.473C43.2429 201.453 42.137 200.4 41.0614 199.316C41.1937 199.185 41.1953 198.972 41.0647 198.839C40.4531 198.218 39.8516 197.587 39.2602 196.945C39.134 196.808 38.9207 196.8 38.7837 196.926C37.7544 195.8 36.7563 194.644 35.791 193.46C35.9355 193.343 35.9578 193.131 35.8408 192.986C35.293 192.308 34.756 191.621 34.2299 190.925C34.1176 190.776 33.9063 190.747 33.7576 190.859C32.8436 189.639 31.9633 188.391 31.1179 187.117C31.2732 187.015 31.3161 186.806 31.2138 186.65C30.7353 185.922 30.2681 185.186 29.8127 184.441C29.7155 184.283 29.5081 184.232 29.3491 184.329C28.5597 183.026 27.8058 181.698 27.0891 180.347C27.2537 180.26 27.317 180.056 27.2305 179.891C26.8259 179.12 26.4335 178.342 26.0534 177.556C25.9723 177.388 25.7708 177.318 25.6031 177.399C24.9461 176.025 24.3266 174.63 23.746 173.213C23.9184 173.142 24.0014 172.946 23.9316 172.773C23.6052 171.967 23.2914 171.154 22.9904 170.334C22.9263 170.159 22.7327 170.069 22.5579 170.133C22.0398 168.703 21.5608 167.253 21.1222 165.784C21.3007 165.731 21.4027 165.544 21.3502 165.365C21.1049 164.531 20.8727 163.691 20.6538 162.845C20.6072 162.665 20.4234 162.557 20.2431 162.603C19.8686 161.13 19.5343 159.64 19.2415 158.134C19.4243 158.099 19.5442 157.923 19.5094 157.74C19.3472 156.886 19.1982 156.027 19.0629 155.163C19.0341 154.979 18.8618 154.854 18.6778 154.882C18.4492 153.382 18.2615 151.867 18.1158 150.338C18.3011 150.321 18.4376 150.157 18.4207 149.971C18.381 149.536 18.3448 149.1 18.312 148.662C18.2792 148.225 18.25 147.788 18.2243 147.352C18.2134 147.166 18.054 147.024 17.8681 147.035C17.7842 145.501 17.744 143.975 17.7463 142.458C17.9325 142.458 18.0841 142.308 18.0852 142.122C18.0902 141.247 18.1094 140.376 18.1425 139.508C18.1496 139.322 18.0047 139.165 17.8187 139.158C17.8837 137.625 17.9921 136.102 18.1428 134.59C18.328 134.608 18.4936 134.474 18.5128 134.289C18.6031 133.42 18.7075 132.554 18.8256 131.693C18.8509 131.508 18.7221 131.338 18.5377 131.313C18.7525 129.795 19.0099 128.29 19.3089 126.798C19.4913 126.835 19.6693 126.718 19.7067 126.535C19.882 125.68 20.071 124.829 20.2736 123.983C20.317 123.802 20.2055 123.62 20.0246 123.576C20.3874 122.088 20.7919 120.616 21.2368 119.16C21.4146 119.215 21.6034 119.115 21.6586 118.937C21.9172 118.103 22.1892 117.275 22.4743 116.453C22.5353 116.277 22.4423 116.085 22.2666 116.023C22.7737 114.58 23.3211 113.154 23.9075 111.748C24.0791 111.82 24.2768 111.74 24.3492 111.568C24.6885 110.764 25.0406 109.966 25.4053 109.175C25.4833 109.006 25.4096 108.806 25.2407 108.728C25.8867 107.342 26.5713 105.977 27.2931 104.635C27.4568 104.723 27.6614 104.662 27.7503 104.499C28.1666 103.732 28.5952 102.972 29.0358 102.221C29.13 102.06 29.0762 101.853 28.9158 101.759C29.6938 100.444 30.5084 99.1526 31.3583 97.8861C31.5127 97.9901 31.7222 97.9496 31.8266 97.7954C32.3157 97.0731 32.8164 96.3591 33.3285 95.6535C33.4379 95.5028 33.4045 95.292 33.2541 95.1824C34.1561 93.9503 35.0927 92.7444 36.0625 91.5662C36.2059 91.6848 36.4184 91.6649 36.5373 91.5216C37.0944 90.8506 37.6623 90.1887 38.2408 89.5361C38.3643 89.3968 38.3517 89.1838 38.2127 89.06C39.2299 87.9223 40.2794 86.8133 41.36 85.7346C41.4912 85.8667 41.7046 85.8676 41.8369 85.7365C42.4565 85.1232 43.0862 84.5198 43.7258 83.9266C43.8623 83.8 43.8705 83.5868 43.7442 83.45C44.867 82.4175 46.0197 81.4162 47.2011 80.4477C47.3188 80.5919 47.5311 80.6136 47.6756 80.4962C48.3519 79.9465 49.0375 79.4076 49.7322 78.8797C49.8805 78.767 49.9095 78.5556 49.7972 78.4072C51.0149 77.4899 52.2601 76.6063 53.5317 75.7578C53.6347 75.9128 53.8438 75.9553 53.9991 75.8526C54.7257 75.3722 55.4608 74.9032 56.2042 74.446C56.3628 74.3485 56.4125 74.1409 56.3153 73.9822C57.6165 73.1896 58.9427 72.4327 60.2927 71.7131C60.3799 71.8776 60.5838 71.9405 60.7485 71.8536C61.5185 71.4473 62.2961 71.0533 63.0813 70.6716C63.2487 70.5902 63.3186 70.3886 63.2376 70.221C64.6097 69.5612 66.0042 68.9391 67.42 68.3561C67.4905 68.5283 67.6872 68.6111 67.8597 68.5409C68.6656 68.2131 69.4783 67.8979 70.2976 67.5958C70.4723 67.5313 70.5619 67.3376 70.4978 67.1629C71.9272 66.6426 73.3764 66.1616 74.8445 65.7212C74.8976 65.8996 75.0851 66.0014 75.2637 65.9486C76.0975 65.7024 76.9373 65.4692 77.7829 65.2495C77.9632 65.2026 78.0714 65.0187 78.025 64.8385C79.4972 64.4625 80.9868 64.127 82.4926 63.8331C82.5279 64.0159 82.7045 64.1357 82.8874 64.1008C83.7409 63.9379 84.5997 63.7885 85.4634 63.6528C85.6474 63.6239 85.7732 63.4515 85.7446 63.2676C87.2448 63.0383 88.7598 62.8501 90.2886 62.7043C90.3059 62.8896 90.47 63.026 90.6554 63.0091C91.0906 62.9694 91.5268 62.9331 91.9642 62.9003C92.4015 62.8676 92.8383 62.8384 93.2745 62.8127C93.4604 62.8018 93.6023 62.6424 93.5918 62.4566C95.1252 62.3729 96.6514 62.3331 98.1689 62.3361C98.1682 62.5222 98.3182 62.6739 98.5045 62.6751C99.3788 62.6805 100.25 62.7002 101.118 62.7339C101.305 62.7412 101.461 62.5964 101.469 62.4104C103.002 62.4764 104.525 62.5861 106.037 62.7384C106.017 62.9235 106.152 63.0892 106.337 63.1087C107.206 63.1999 108.071 63.3052 108.932 63.4244C109.117 63.4499 109.287 63.3213 109.313 63.137C110.83 63.3535 112.335 63.6131 113.826 63.9144C113.789 64.0967 113.906 64.2749 114.089 64.3126C114.944 64.4892 115.794 64.6797 116.64 64.8837C116.821 64.9273 117.003 64.8162 117.047 64.6353C118.534 65.0007 120.006 65.4079 121.461 65.8558C121.406 66.0335 121.505 66.2225 121.683 66.278C122.516 66.5384 123.344 66.8121 124.166 67.099C124.342 67.1603 124.534 67.0677 124.596 66.8921C126.038 67.4024 127.462 67.953 128.867 68.5428C128.794 68.7142 128.875 68.912 129.046 68.9849C129.849 69.3261 130.646 69.6802 131.436 70.0469C131.605 70.1253 131.805 70.0521 131.884 69.8834C133.268 70.5329 134.631 71.2209 135.972 71.9464C135.883 72.1099 135.943 72.3146 136.107 72.4039C136.872 72.8223 137.631 73.253 138.381 73.6957C138.542 73.7903 138.748 73.7371 138.843 73.577C140.156 74.3585 141.445 75.1767 142.709 76.0303C142.605 76.1843 142.645 76.394 142.798 76.4988C143.519 76.99 144.232 77.4928 144.936 78.0069C145.086 78.1167 145.297 78.084 145.407 77.9339C146.637 78.8394 147.84 79.7794 149.015 80.7528C148.896 80.8959 148.916 81.1084 149.059 81.2278C149.728 81.7867 150.388 82.3566 151.039 82.937C151.178 83.061 151.391 83.049 151.515 82.9103C152.65 83.9308 153.756 84.9835 154.831 86.0673C154.699 86.1982 154.698 86.4116 154.828 86.5443C155.44 87.1656 156.041 87.797 156.633 88.4383C156.759 88.5752 156.972 88.584 157.109 88.4581C158.138 89.5837 159.136 90.7393 160.102 91.9235C159.957 92.0408 159.935 92.253 160.052 92.3978C160.6 93.0756 161.137 93.7626 161.663 94.4588C161.775 94.6074 161.986 94.6369 162.135 94.525C163.049 95.7451 163.93 96.9927 164.775 98.2665C164.62 98.3691 164.577 98.5781 164.679 98.7337C165.158 99.4614 165.625 100.198 166.08 100.942C166.177 101.101 166.385 101.151 166.544 101.054C167.333 102.357 168.087 103.685 168.804 105.037C168.639 105.124 168.576 105.328 168.662 105.493C169.067 106.263 169.459 107.042 169.839 107.828C169.92 107.995 170.122 108.066 170.29 107.985C170.947 109.358 171.566 110.754 172.147 112.171C171.974 112.241 171.891 112.438 171.961 112.61C172.288 113.417 172.601 114.23 172.902 115.05C172.967 115.225 173.16 115.314 173.335 115.251C173.853 116.681 174.332 118.131 174.771 119.599C174.592 119.652 174.49 119.84 174.543 120.018C174.788 120.852 175.02 121.692 175.239 122.538C175.286 122.719 175.469 122.827 175.65 122.781C176.024 124.253 176.358 125.743 176.651 127.249C176.469 127.285 176.349 127.461 176.383 127.644C176.546 128.498 176.695 129.356 176.83 130.22C176.859 130.404 177.031 130.53 177.215 130.502C177.444 132.002 177.631 133.517 177.777 135.046C177.592 135.063 177.455 135.227 177.472 135.413C177.512 135.848 177.548 136.284 177.581 136.721C177.614 137.159 177.643 137.596 177.668 138.032C177.679 138.218 177.839 138.36 178.025 138.349C178.109 139.882 178.149 141.409 178.146 142.926C177.96 142.925 177.809 143.076 177.808 143.262C177.803 144.136 177.783 145.008 177.75 145.876C177.743 146.062 177.888 146.219 178.074 146.226C178.009 147.759 177.901 149.282 177.75 150.794C177.565 150.775 177.399 150.91 177.38 151.095C177.29 151.964 177.185 152.829 177.067 153.691C177.042 153.875 177.171 154.045 177.355 154.071C177.14 155.589 176.883 157.094 176.584 158.585C176.401 158.548 176.223 158.666 176.186 158.848C176.011 159.704 175.822 160.555 175.619 161.401C175.576 161.582 175.687 161.764 175.868 161.808C175.505 163.295 175.101 164.768 174.656 166.224C174.478 166.169 174.289 166.268 174.234 166.446C173.976 167.28 173.704 168.108 173.418 168.931C173.357 169.107 173.45 169.299 173.626 169.36C173.119 170.804 172.572 172.229 171.985 173.635C171.814 173.563 171.616 173.644 171.544 173.815C171.204 174.62 170.852 175.417 170.487 176.208C170.409 176.377 170.483 176.578 170.652 176.656C170.006 178.041 169.322 179.406 168.6 180.749C168.436 180.661 168.231 180.721 168.143 180.885C167.726 181.652 167.298 182.411 166.857 183.163C166.763 183.324 166.817 183.53 166.977 183.625C166.199 184.94 165.384 186.231 164.534 187.498C164.38 187.394 164.171 187.434 164.066 187.588C163.577 188.311 163.076 189.025 162.564 189.73C162.455 189.881 162.488 190.092 162.639 190.201C161.737 191.433 160.8 192.639 159.83 193.817C159.687 193.699 159.474 193.719 159.355 193.862C158.798 194.533 158.231 195.195 157.652 195.848C157.528 195.987 157.541 196.2 157.68 196.324C156.663 197.461 155.613 198.57 154.533 199.649C154.402 199.517 154.188 199.516 154.056 199.647C153.436 200.26 152.807 200.864 152.167 201.457C152.03 201.584 152.022 201.797 152.149 201.934C151.026 202.966 149.873 203.967 148.692 204.936C148.574 204.792 148.362 204.77 148.217 204.887C147.541 205.437 146.855 205.976 146.161 206.504C146.012 206.617 145.983 206.828 146.096 206.976C144.878 207.894 143.633 208.777 142.361 209.626C142.258 209.471 142.049 209.428 141.894 209.531C141.167 210.011 140.432 210.48 139.689 210.938C139.53 211.035 139.48 211.243 139.577 211.401C138.276 212.194 136.95 212.951 135.6 213.671C135.513 213.506 135.309 213.443 135.144 213.53C134.374 213.936 133.597 214.33 132.812 214.712C132.644 214.793 132.574 214.995 132.655 215.163C131.283 215.822 129.889 216.445 128.473 217.028C128.402 216.855 128.206 216.773 128.033 216.843C127.227 217.171 126.415 217.486 125.595 217.788C125.42 217.852 125.331 218.046 125.395 218.221C123.966 218.741 122.516 219.222 121.048 219.662C120.995 219.484 120.808 219.382 120.629 219.435C119.795 219.681 118.955 219.914 118.11 220.134C117.93 220.181 117.821 220.365 117.868 220.545C116.396 220.921 114.906 221.257 113.4 221.551C113.365 221.368 113.188 221.248 113.005 221.283C112.152 221.446 111.293 221.595 110.429 221.731C110.245 221.76 110.12 221.932 110.148 222.116Z" stroke="url(#paint0_linear_106_186)" stroke-opacity="0.8" stroke-width="0.675236" stroke-linecap="round" stroke-linejoin="round" stroke-dasharray="2.7 5.4"/>
  </g>
  <ellipse cx="90.9082" cy="81.0938" rx="72.2502" ry="72.1086" transform="rotate(-6.51784 90.9082 81.0938)" fill="url(#paint1_linear_106_186)"/>
  <ellipse cx="90.9082" cy="81.0938" rx="72.2502" ry="72.1086" transform="rotate(-6.51784 90.9082 81.0938)" fill="url(#paint2_linear_106_186)"/>
  <g filter="url(#filter1_b_106_186)">
  <ellipse cx="104.859" cy="145.174" rx="72.2502" ry="72.1086" transform="rotate(-6.51784 104.859 145.174)" fill="#2E2E2E" fill-opacity="0.9"/>
  <path d="M176.306 137.011C180.806 176.392 152.466 211.973 113.006 216.481C73.5454 220.989 37.9102 192.718 33.4108 153.337C28.9115 113.956 57.2515 78.3752 96.7117 73.8668C136.172 69.3584 171.807 97.6297 176.306 137.011Z" stroke="url(#paint3_linear_106_186)" stroke-width="0.675236"/>
  </g>
  <defs>
  <filter id="filter0_b_106_186" x="-41.6745" y="2.9152" width="279.242" height="279.553" filterUnits="userSpaceOnUse" color-interpolation-filters="sRGB">
  <feFlood flood-opacity="0" result="BackgroundImageFix"/>
  <feGaussianBlur in="BackgroundImageFix" stdDeviation="29.7104"/>
  <feComposite in2="SourceAlpha" operator="in" result="effect1_backgroundBlur_106_186"/>
  <feBlend mode="normal" in="SourceGraphic" in2="effect1_backgroundBlur_106_186" result="shape"/>
  </filter>
  <filter id="filter1_b_106_186" x="-26.8172" y="13.636" width="263.352" height="263.076" filterUnits="userSpaceOnUse" color-interpolation-filters="sRGB">
  <feFlood flood-opacity="0.8" result="BackgroundImageFix"/>
  <feGaussianBlur in="BackgroundImageFix" stdDeviation="29.7104"/>
  <feComposite in2="SourceAlpha" operator="in" result="effect1_backgroundBlur_106_186"/>
  <feBlend mode="normal" in="SourceGraphic" in2="effect1_backgroundBlur_106_186" result="shape"/>
  </filter>
  <linearGradient id="paint0_linear_106_186" x1="177.917" y1="136.696" x2="17.9753" y2="148.688" gradientUnits="userSpaceOnUse">
  <stop stop-color="white"/>
  <stop offset="1" stop-color="white" stop-opacity="0"/>
  </linearGradient>
  <linearGradient id="paint1_linear_106_186" x1="90.9082" y1="8.98521" x2="90.9082" y2="153.202" gradientUnits="userSpaceOnUse">
  <stop stop-color="#36A8F8"/>
  <stop offset="0.9999" stop-color="#0298FF"/>
  <stop offset="1" stop-color="#F5FFA8"/>
  </linearGradient>
  <linearGradient id="paint2_linear_106_186" x1="92.7518" y1="8.98521" x2="92.7518" y2="151.118" gradientUnits="userSpaceOnUse">
  <stop stop-color="#4200FF"/>
  <stop offset="1" stop-color="#3891FF"/>
  </linearGradient>
  <linearGradient id="paint3_linear_106_186" x1="96.6734" y1="73.5314" x2="113.044" y2="216.816" gradientUnits="userSpaceOnUse">
  <stop stop-color="white"/>
  <stop offset="1" stop-color="white" stop-opacity="0"/>
  </linearGradient>
  </defs>
  </svg>
