<svg width="96" height="173" viewBox="0 0 96 173" fill="none" xmlns="http://www.w3.org/2000/svg">
<g filter="url(#filter0_b_106_190)">
<path d="M17.7416 -9.4825C19.1549 -8.92962 20.5604 -8.33374 21.9567 -7.69433C21.8789 -7.52525 21.9526 -7.32499 22.1216 -7.24675C22.5181 -7.06318 22.9138 -6.87607 23.3088 -6.68541C23.7038 -6.49475 24.0965 -6.30126 24.4868 -6.10497C24.6532 -6.02132 24.8559 -6.08819 24.9398 -6.25432C26.309 -5.55876 27.6499 -4.82888 28.9619 -4.06622C28.868 -3.90551 28.9219 -3.69903 29.0825 -3.60476C29.8366 -3.1622 30.5809 -2.70873 31.3156 -2.24466C31.473 -2.14521 31.6812 -2.19202 31.7809 -2.34918C33.0746 -1.52431 34.3379 -0.666596 35.5702 0.222324C35.4609 0.37303 35.4943 0.583801 35.6449 0.693386C36.3513 1.20752 37.0474 1.732 37.7331 2.26649C37.88 2.38097 38.0918 2.35489 38.2065 2.20832C39.4113 3.15572 40.5838 4.13403 41.7234 5.14154C41.5998 5.28071 41.6122 5.49373 41.7512 5.61769C42.4029 6.19889 43.0438 6.78972 43.6736 7.38988C43.8085 7.51833 44.0218 7.51336 44.1505 7.37888C45.2545 8.43984 46.3244 9.52939 47.3595 10.6458C47.2228 10.772 47.214 10.9853 47.34 11.1223C47.9308 11.765 48.5102 12.4165 49.0779 13.0764C49.1994 13.2176 49.4121 13.2337 49.5535 13.1126C50.5463 14.2766 51.5032 15.4665 52.4237 16.6805C52.2752 16.7927 52.2454 17.004 52.3573 17.1528C52.8816 17.8505 53.394 18.5561 53.8942 19.2692C54.0011 19.4216 54.2113 19.4587 54.3639 19.3521C55.2364 20.6073 56.0716 21.8855 56.8689 23.185C56.71 23.282 56.6596 23.4893 56.7563 23.6485C57.2095 24.3941 57.6501 25.1466 58.0781 25.9058C58.1696 26.068 58.3751 26.1255 58.5374 26.0344C59.2821 27.3682 59.9881 28.7221 60.6548 30.094C60.4872 30.175 60.4168 30.3765 60.4975 30.5443C60.8754 31.3305 61.2404 32.1225 61.5924 32.9202C61.6675 33.0905 61.8664 33.1678 62.0369 33.093C62.6474 34.4925 63.218 35.9087 63.7479 37.3399C63.5732 37.4042 63.4835 37.5978 63.5474 37.7727C63.8468 38.5917 64.1329 39.4156 64.4055 40.244C64.4637 40.4209 64.6542 40.5172 64.8311 40.4594C65.3021 41.9109 65.732 43.376 66.1202 44.8528C65.9401 44.8997 65.8319 45.0836 65.8785 45.2639C66.0966 46.108 66.3011 46.9558 66.4917 47.807C66.5324 47.9888 66.7126 48.1032 66.8943 48.0629C67.2214 49.5526 67.5065 51.0526 67.749 52.5611C67.5652 52.5903 67.4395 52.7628 67.4683 52.9468C67.603 53.8077 67.7237 54.6713 67.8304 55.5374C67.8532 55.7222 68.0213 55.8536 68.2061 55.8313C68.386 57.345 68.5232 58.8658 68.617 60.3917C68.4312 60.4027 68.2893 60.5621 68.2999 60.748C68.3497 61.6176 68.3853 62.4888 68.4066 63.3613C68.4111 63.5475 68.5655 63.6948 68.7516 63.6906C68.7824 65.2138 68.7697 66.7407 68.7131 68.2697C68.5271 68.2624 68.3703 68.407 68.3626 68.5931C68.3267 69.4629 68.2765 70.3332 68.2119 71.2038C68.1981 71.3895 68.3373 71.5513 68.5229 71.5655C68.4037 73.0832 68.2409 74.6015 68.0338 76.1188C67.8494 76.0932 67.6791 76.2217 67.6531 76.4061C67.5318 77.2675 67.3961 78.1285 67.2459 78.9888C67.2139 79.1723 67.3365 79.347 67.5198 79.3794C67.2519 80.8766 66.9403 82.3715 66.5844 83.8624C66.4034 83.8188 66.2212 83.9299 66.1772 84.1109C65.9718 84.9556 65.752 85.799 65.5178 86.6408C65.4679 86.8202 65.5727 87.0061 65.7519 87.0563C65.3385 88.5185 64.8817 89.9755 64.3808 91.4257C64.205 91.3646 64.0128 91.4573 63.9513 91.6331C63.6642 92.4532 63.363 93.2711 63.0474 94.0866C62.9802 94.2602 63.0664 94.4555 63.2398 94.523C62.6863 95.936 62.09 97.3414 61.4504 98.7377C61.2814 98.6598 61.0811 98.7334 61.0028 98.9024C60.8192 99.2989 60.6321 99.6947 60.4414 100.09C60.2508 100.485 60.0573 100.877 59.861 101.268C59.7774 101.434 59.8443 101.637 60.0104 101.721C59.315 103.09 58.5855 104.431 57.8235 105.743C57.6627 105.65 57.4562 105.704 57.362 105.864C56.9198 106.619 56.4668 107.363 56.0032 108.098C55.9039 108.256 55.9508 108.464 56.108 108.563C55.284 109.858 54.4274 111.122 53.5397 112.355C53.3889 112.246 53.1781 112.279 53.0687 112.43C52.5553 113.137 52.0316 113.834 51.498 114.52C51.3837 114.667 51.41 114.879 51.5567 114.993C50.6108 116.2 49.6341 117.373 48.6283 118.514C48.489 118.391 48.276 118.404 48.1522 118.543C47.572 119.196 46.9823 119.837 46.3832 120.468C46.255 120.603 46.2603 120.817 46.3951 120.945C45.3359 122.051 44.2483 123.123 43.1341 124.16C43.0076 124.024 42.7943 124.015 42.6575 124.142C42.016 124.734 41.3657 125.315 40.7071 125.884C40.5661 126.006 40.5504 126.218 40.6718 126.359C39.5099 127.355 38.3222 128.314 37.1104 129.238C36.9979 129.09 36.7866 129.06 36.638 129.173C35.9416 129.699 35.2373 130.213 34.5254 130.715C34.3732 130.822 34.3367 131.032 34.4437 131.184C33.1906 132.06 31.9145 132.899 30.6173 133.699C30.5198 133.541 30.3123 133.491 30.1535 133.588C29.409 134.043 28.6577 134.486 27.8998 134.916C27.7379 135.008 27.6809 135.214 27.7725 135.376C26.4405 136.124 25.0887 136.834 23.7187 137.505C23.6372 137.337 23.4356 137.267 23.268 137.348C22.4829 137.729 21.6919 138.096 20.8953 138.45C20.7252 138.526 20.6485 138.725 20.7237 138.895C19.3259 139.51 17.9114 140.085 16.4819 140.619C16.4171 140.444 16.2232 140.355 16.0485 140.419C15.2303 140.721 14.4073 141.01 13.5797 141.285C13.403 141.344 13.3073 141.534 13.3656 141.711C11.9153 142.186 10.4515 142.62 8.976 143.013C8.92854 142.833 8.74428 142.725 8.56413 142.772C7.72066 142.993 6.87344 143.2 6.02279 143.393C5.84118 143.434 5.72729 143.615 5.76812 143.796C4.27916 144.128 2.77996 144.417 1.27234 144.664C1.24269 144.48 1.06985 144.355 0.88594 144.384C0.0253014 144.521 -0.838027 144.644 -1.7037 144.753C-1.88847 144.776 -2.01946 144.945 -1.9966 145.13C-3.50998 145.314 -5.03037 145.455 -6.55589 145.552C-6.56737 145.367 -6.7271 145.225 -6.91299 145.236C-7.7825 145.288 -8.65364 145.326 -9.52606 145.349C-9.71221 145.354 -9.85913 145.509 -9.85452 145.695C-11.3777 145.729 -12.9047 145.72 -14.4335 145.667C-14.4266 145.481 -14.5717 145.324 -14.7577 145.317C-15.6276 145.283 -16.4981 145.235 -17.3688 145.172C-17.5545 145.158 -17.716 145.298 -17.7298 145.484C-19.2478 145.367 -20.7664 145.208 -22.2839 145.003C-22.2586 144.819 -22.3874 144.648 -22.5719 144.623C-23.4336 144.503 -24.2948 144.369 -25.1553 144.22C-25.3388 144.188 -25.5133 144.311 -25.5454 144.494C-27.0432 144.229 -28.5385 143.919 -30.0297 143.565C-29.9863 143.384 -30.0977 143.202 -30.2787 143.158C-31.1237 142.954 -31.9673 142.735 -32.8093 142.502C-32.9888 142.452 -33.1746 142.557 -33.2247 142.736C-34.6872 142.324 -36.1446 141.869 -37.5951 141.369C-37.5341 141.193 -37.627 141.001 -37.8028 140.94C-38.6231 140.653 -39.4412 140.352 -40.2568 140.037C-40.4305 139.97 -40.6257 140.056 -40.6931 140.23C-42.1064 139.677 -43.5119 139.081 -44.9082 138.442C-44.8304 138.272 -44.9041 138.072 -45.0731 137.994C-45.4696 137.81 -45.8653 137.623 -46.2603 137.433C-46.6553 137.242 -47.048 137.048 -47.4383 136.852C-47.6047 136.769 -47.8074 136.835 -47.8913 137.002C-49.2605 136.306 -50.6014 135.576 -51.9134 134.813C-51.8195 134.653 -51.8734 134.446 -52.034 134.352C-52.788 133.909 -53.5324 133.456 -54.267 132.992C-54.4245 132.892 -54.6327 132.939 -54.7324 133.096C-56.0261 132.272 -57.2893 131.414 -58.5216 130.525C-58.4124 130.374 -58.4458 130.163 -58.5964 130.054C-59.3028 129.54 -59.9989 129.015 -60.6846 128.481C-60.8315 128.366 -61.0433 128.392 -61.158 128.539C-62.3628 127.591 -63.5353 126.613 -64.6749 125.606C-64.5513 125.466 -64.5637 125.253 -64.7026 125.13C-65.3544 124.548 -65.9953 123.957 -66.6251 123.357C-66.76 123.229 -66.9733 123.234 -67.102 123.368C-68.206 122.307 -69.2759 121.218 -70.311 120.101C-70.1742 119.975 -70.1655 119.762 -70.2915 119.625C-70.8823 118.982 -71.4617 118.331 -72.0294 117.671C-72.1509 117.53 -72.3636 117.513 -72.505 117.635C-73.4977 116.471 -74.4547 115.281 -75.3752 114.067C-75.2267 113.955 -75.1969 113.743 -75.3088 113.594C-75.8331 112.897 -76.3455 112.191 -76.8457 111.478C-76.9526 111.326 -77.1628 111.289 -77.3154 111.395C-78.1879 110.14 -79.0231 108.862 -79.8204 107.562C-79.6615 107.465 -79.6111 107.258 -79.7078 107.099C-80.161 106.353 -80.6016 105.601 -81.0296 104.841C-81.1211 104.679 -81.3266 104.622 -81.4889 104.713C-82.2336 103.379 -82.9396 102.025 -83.6063 100.653C-83.4387 100.572 -83.3683 100.371 -83.449 100.203C-83.8269 99.4167 -84.1919 98.6247 -84.5439 97.827C-84.619 97.6567 -84.8179 97.5794 -84.9884 97.6542C-85.5989 96.2547 -86.1695 94.8385 -86.6994 93.4073C-86.5247 93.343 -86.435 93.1494 -86.4989 92.9745C-86.7983 92.1555 -87.0844 91.3316 -87.357 90.5032C-87.4152 90.3263 -87.6057 90.23 -87.7826 90.2878C-88.2536 88.8363 -88.6835 87.3712 -89.0717 85.8944C-88.8916 85.8475 -88.7834 85.6635 -88.83 85.4832C-89.0481 84.6392 -89.2526 83.7914 -89.4432 82.9402C-89.4839 82.7584 -89.6641 82.644 -89.8458 82.6843C-90.1729 81.1946 -90.458 79.6945 -90.7005 78.1861C-90.5167 78.1569 -90.391 77.9844 -90.4198 77.8004C-90.5545 76.9395 -90.6752 76.0758 -90.7819 75.2098C-90.8047 75.025 -90.9728 74.8936 -91.1575 74.9159C-91.3375 73.4022 -91.4747 71.8814 -91.5685 70.3555C-91.3827 70.3445 -91.2408 70.1851 -91.2514 69.9992C-91.3012 69.1296 -91.3368 68.2584 -91.3581 67.3859C-91.3626 67.1997 -91.517 67.0524 -91.7031 67.0566C-91.7339 65.5334 -91.7212 64.0065 -91.6646 62.4775C-91.4786 62.4848 -91.3218 62.3402 -91.3141 62.1541C-91.2782 61.2843 -91.228 60.414 -91.1634 59.5434C-91.1496 59.3577 -91.2888 59.1959 -91.4744 59.1817C-91.3552 57.664 -91.1924 56.1457 -90.9853 54.6284C-90.8009 54.654 -90.6306 54.5255 -90.6046 54.3411C-90.4833 53.4797 -90.3476 52.6187 -90.1974 51.7584C-90.1654 51.5749 -90.288 51.4002 -90.4713 51.3678C-90.2034 49.8706 -89.8918 48.3756 -89.5359 46.8847C-89.3549 46.9284 -89.1727 46.8173 -89.1287 46.6363C-88.9233 45.7916 -88.7035 44.9482 -88.4693 44.1064C-88.4194 43.927 -88.5242 43.7411 -88.7034 43.6908C-88.29 42.2287 -87.8331 40.7717 -87.3323 39.3215C-87.1565 39.3826 -86.9643 39.2899 -86.9028 39.1141C-86.6157 38.294 -86.3144 37.4761 -85.9989 36.6606C-85.9317 36.487 -86.0179 36.2917 -86.1913 36.2242C-85.6378 34.8112 -85.0415 33.4058 -84.4019 32.0095C-84.2329 32.0874 -84.0326 32.0138 -83.9543 31.8448C-83.7707 31.4482 -83.5836 31.0525 -83.3929 30.6575C-83.2022 30.2625 -83.0088 29.8698 -82.8125 29.4794C-82.7289 29.313 -82.7958 29.1104 -82.9619 29.0264C-82.2665 27.6571 -81.537 26.3161 -80.7749 25.0037C-80.6142 25.0975 -80.4077 25.0435 -80.3135 24.8829C-79.8713 24.1286 -79.4183 23.384 -78.9547 22.649C-78.8553 22.4915 -78.9023 22.2834 -79.0595 22.1838C-78.2355 20.8895 -77.3789 19.6255 -76.4912 18.3923C-76.3404 18.5013 -76.1296 18.4677 -76.0202 18.3171C-75.5068 17.6101 -74.9831 16.9134 -74.4495 16.2271C-74.3352 16.0801 -74.3615 15.8683 -74.5082 15.7538C-73.5623 14.5477 -72.5856 13.3738 -71.5798 12.2327C-71.4405 12.3561 -71.2275 12.3434 -71.1037 12.2042C-70.5235 11.5515 -69.9337 10.9097 -69.3347 10.2789C-69.2065 10.1438 -69.2118 9.93052 -69.3465 9.80207C-68.2874 8.69611 -67.1998 7.62416 -66.0856 6.58683C-65.959 6.72334 -65.7458 6.7317 -65.609 6.60539C-64.9675 6.01323 -64.3172 5.43255 -63.6585 4.86343C-63.5176 4.74168 -63.5019 4.52886 -63.6233 4.38777C-62.4614 3.39239 -61.2737 2.43269 -60.0619 1.50933C-59.9494 1.65762 -59.738 1.68691 -59.5895 1.57467C-58.893 1.04862 -58.1887 0.534556 -57.4769 0.0326136C-57.3247 -0.0747074 -57.2882 -0.284951 -57.3952 -0.437286C-56.142 -1.31307 -54.866 -2.15161 -53.5687 -2.95227C-53.4713 -2.79366 -53.2638 -2.74381 -53.105 -2.84095C-52.3605 -3.29612 -51.6092 -3.7388 -50.8513 -4.16889C-50.6893 -4.2608 -50.6324 -4.46646 -50.724 -4.62853C-49.392 -5.377 -48.0401 -6.08682 -46.6702 -6.75735C-46.5887 -6.59 -46.3871 -6.52012 -46.2195 -6.60129C-45.4344 -6.9815 -44.6434 -7.34878 -43.8468 -7.70302C-43.6767 -7.77868 -43.5999 -7.97782 -43.6752 -8.14805C-42.2774 -8.76269 -40.8628 -9.33739 -39.4334 -9.8715C-39.3686 -9.697 -39.1747 -9.6078 -39 -9.67225C-38.1818 -9.97407 -37.3587 -10.2626 -36.5312 -10.5376C-36.3545 -10.5963 -36.2587 -10.787 -36.3171 -10.9638C-34.8668 -11.4391 -33.403 -11.8733 -31.9275 -12.2658C-31.88 -12.0858 -31.6958 -11.9781 -31.5156 -12.0252C-30.6722 -12.2458 -29.8249 -12.4527 -28.9743 -12.6458C-28.7927 -12.687 -28.6788 -12.8675 -28.7196 -13.0491C-27.2307 -13.3805 -25.7314 -13.6698 -24.2238 -13.9164C-24.1942 -13.7327 -24.0213 -13.6075 -23.8374 -13.6368C-22.9768 -13.7739 -22.1135 -13.8969 -21.2478 -14.0059C-21.063 -14.0292 -20.932 -14.1976 -20.9549 -14.3824C-19.4415 -14.5664 -17.9211 -14.7075 -16.3956 -14.8051C-16.3841 -14.6193 -16.2244 -14.4779 -16.0385 -14.489C-15.169 -14.5409 -14.2978 -14.5786 -13.4254 -14.602C-13.2393 -14.607 -13.0924 -14.7617 -13.097 -14.9478C-11.5738 -14.9822 -10.0468 -14.9731 -8.51795 -14.9198C-8.52484 -14.7338 -8.37984 -14.5772 -8.19376 -14.5699C-7.32387 -14.5359 -6.4534 -14.4875 -5.58268 -14.4247C-5.39695 -14.4113 -5.23547 -14.5508 -5.22168 -14.7364C-3.70367 -14.6203 -2.18505 -14.4603 -0.667592 -14.2558C-0.692843 -14.0714 -0.564049 -13.9013 -0.379602 -13.8757C0.482078 -13.7558 1.34334 -13.6215 2.20386 -13.4727C2.38736 -13.441 2.56186 -13.5638 2.59395 -13.7472C4.09167 -13.4816 5.587 -13.1721 7.07824 -12.818C7.03485 -12.637 7.14617 -12.4549 7.32718 -12.4112C8.1722 -12.2067 9.01585 -11.9879 9.85784 -11.7546C10.0373 -11.7049 10.2231 -11.8099 10.2732 -11.9891C11.7357 -11.5772 13.1931 -11.1216 14.6436 -10.6217C14.5826 -10.4459 14.6755 -10.2538 14.8513 -10.1923C15.6716 -9.90582 16.4897 -9.60504 17.3053 -9.28992C17.479 -9.2228 17.6742 -9.30901 17.7416 -9.4825Z" stroke="url(#paint0_linear_106_190)" stroke-opacity="0.8" stroke-width="0.675236" stroke-linecap="round" stroke-linejoin="round" stroke-dasharray="2.7 5.4"/>
</g>
<ellipse cx="-11.4767" cy="3.37483" rx="72.2502" ry="72.1086" fill="url(#paint1_linear_106_190)"/>
<ellipse cx="-11.4767" cy="3.37483" rx="72.2502" ry="72.1086" fill="url(#paint2_linear_106_190)"/>
<g filter="url(#filter1_b_106_190)">
<ellipse cx="-11.4768" cy="65.3748" rx="72.2502" ry="72.1086" fill="#2E2E2E" fill-opacity="0.9"/>
<path d="M60.4357 65.3748C60.4357 105.012 28.24 137.146 -11.4768 137.146C-51.1937 137.146 -83.3894 105.012 -83.3894 65.3748C-83.3894 25.7374 -51.1937 -6.39615 -11.4768 -6.39615C28.24 -6.39615 60.4357 25.7374 60.4357 65.3748Z" stroke="url(#paint3_linear_106_190)" stroke-width="0.675236"/>
</g>
<defs>
<filter id="filter0_b_106_190" x="-151.14" y="-74.3889" width="279.329" height="279.525" filterUnits="userSpaceOnUse" color-interpolation-filters="sRGB">
<feFlood flood-opacity="0" result="BackgroundImageFix"/>
<feGaussianBlur in="BackgroundImageFix" stdDeviation="29.7104"/>
<feComposite in2="SourceAlpha" operator="in" result="effect1_backgroundBlur_106_190"/>
<feBlend mode="normal" in="SourceGraphic" in2="effect1_backgroundBlur_106_190" result="shape"/>
</filter>
<filter id="filter1_b_106_190" x="-143.148" y="-66.1545" width="263.342" height="263.059" filterUnits="userSpaceOnUse" color-interpolation-filters="sRGB">
<feFlood flood-opacity="0.9" result="BackgroundImageFix"/>
<feGaussianBlur in="BackgroundImageFix" stdDeviation="29.7104"/>
<feComposite in2="SourceAlpha" operator="in" result="effect1_backgroundBlur_106_190"/>
<feBlend mode="normal" in="SourceGraphic" in2="effect1_backgroundBlur_106_190" result="shape"/>
</filter>
<linearGradient id="paint0_linear_106_190" x1="-83.697" y1="30.5107" x2="60.7455" y2="100.236" gradientUnits="userSpaceOnUse">
<stop stop-color="white"/>
<stop offset="1" stop-color="white" stop-opacity="0"/>
</linearGradient>
<linearGradient id="paint1_linear_106_190" x1="-11.4767" y1="-68.7338" x2="-11.4767" y2="75.4834" gradientUnits="userSpaceOnUse">
<stop stop-color="#36A8F8"/>
<stop offset="0.9999" stop-color="#0298FF"/>
<stop offset="1" stop-color="#F5FFA8"/>
</linearGradient>
<linearGradient id="paint2_linear_106_190" x1="-9.63314" y1="-68.7338" x2="-9.63314" y2="73.3994" gradientUnits="userSpaceOnUse">
<stop stop-color="#4200FF"/>
<stop offset="1" stop-color="#3891FF"/>
</linearGradient>
<linearGradient id="paint3_linear_106_190" x1="-11.4768" y1="-6.73376" x2="-11.4768" y2="137.483" gradientUnits="userSpaceOnUse">
<stop stop-color="white"/>
<stop offset="1" stop-color="white" stop-opacity="0"/>
</linearGradient>
</defs>
</svg>
