<svg width="23" height="23" viewBox="0 0 23 23" fill="none" xmlns="http://www.w3.org/2000/svg">
<path d="M18.6875 7.66667C20.0107 7.66667 21.0833 6.59402 21.0833 5.27083C21.0833 3.94765 20.0107 2.875 18.6875 2.875C17.3643 2.875 16.2917 3.94765 16.2917 5.27083C16.2917 6.59402 17.3643 7.66667 18.6875 7.66667Z" fill="white"/>
<path d="M18.6875 7.66667C20.0107 7.66667 21.0833 6.59402 21.0833 5.27083C21.0833 3.94765 20.0107 2.875 18.6875 2.875C17.3643 2.875 16.2917 3.94765 16.2917 5.27083C16.2917 6.59402 17.3643 7.66667 18.6875 7.66667Z" fill="white"/>
<path d="M19.8567 8.92217C19.1858 9.133 18.4479 9.17133 17.6813 8.97967C16.3971 8.64425 15.3525 7.61883 14.9979 6.33467C14.8254 5.71175 14.8158 5.09841 14.9213 4.54258C15.0458 3.92925 14.6146 3.35425 14.0013 3.35425H6.70833C3.83333 3.35425 1.91667 4.79175 1.91667 8.14592V14.8542C1.91667 18.2084 3.83333 19.6459 6.70833 19.6459H16.2917C19.1667 19.6459 21.0833 18.2084 21.0833 14.8542V9.83258C21.0833 9.20008 20.47 8.72092 19.8567 8.92217ZM14.8733 10.6855L13.7425 11.5863C13.11 12.0942 12.305 12.3434 11.5 12.3434C10.695 12.3434 9.88042 12.0942 9.2575 11.5863L6.25792 9.1905C5.95125 8.94133 5.90333 8.48133 6.14292 8.17466C6.39208 7.868 6.8425 7.8105 7.14917 8.05967L10.1488 10.4555C10.8771 11.0401 12.1133 11.0401 12.8417 10.4555L13.9725 9.55467C14.2792 9.3055 14.7392 9.35342 14.9788 9.66967C15.2279 9.97633 15.18 10.4363 14.8733 10.6855Z" fill="white"/>
</svg>
