<svg width="24.000000" height="24.000000" viewBox="0 0 24 24" fill="none" xmlns="http://www.w3.org/2000/svg" xmlns:xlink="http://www.w3.org/1999/xlink">
	<desc>
			Created with Pixso.
	</desc>
	<defs>
		<clipPath id="clip120_661">
			<rect id="staff" rx="-0.500000" width="23.000000" height="23.000000" transform="translate(0.500000 0.500000)" fill="white" fill-opacity="0"/>
		</clipPath>
	</defs>
	<rect id="staff" rx="-0.500000" width="23.000000" height="23.000000" transform="translate(0.500000 0.500000)" fill="#FFFFFF" fill-opacity="0"/>
	<g clip-path="url(#clip120_661)">
		<path id="Vector" d="M8.25 6.75C8.25 5.75 8.64 4.8 9.34 4.09C10.05 3.39 11 3 12 3C12.99 3 13.94 3.39 14.65 4.09C15.35 4.8 15.75 5.75 15.75 6.75C15.75 7.74 15.35 8.69 14.65 9.4C13.94 10.1 12.99 10.5 12 10.5C11 10.5 10.05 10.1 9.34 9.4C8.64 8.69 8.25 7.74 8.25 6.75ZM15.75 9.75C15.75 8.95 16.06 8.19 16.62 7.62C17.19 7.06 17.95 6.75 18.75 6.75C19.54 6.75 20.3 7.06 20.87 7.62C21.43 8.19 21.75 8.95 21.75 9.75C21.75 10.54 21.43 11.3 20.87 11.87C20.3 12.43 19.54 12.75 18.75 12.75C17.95 12.75 17.19 12.43 16.62 11.87C16.06 11.3 15.75 10.54 15.75 9.75ZM2.25 9.75C2.25 8.95 2.56 8.19 3.12 7.62C3.69 7.06 4.45 6.75 5.25 6.75C6.04 6.75 6.8 7.06 7.37 7.62C7.93 8.19 8.25 8.95 8.25 9.75C8.25 10.54 7.93 11.3 7.37 11.87C6.8 12.43 6.04 12.75 5.25 12.75C4.45 12.75 3.69 12.43 3.12 11.87C2.56 11.3 2.25 10.54 2.25 9.75ZM6.31 15.11C6.91 14.16 7.76 13.37 8.75 12.82C9.75 12.28 10.86 11.99 12 12C12.94 11.99 13.88 12.19 14.75 12.58C15.62 12.97 16.39 13.53 17.03 14.24C17.66 14.95 18.14 15.78 18.43 16.69C18.72 17.59 18.81 18.55 18.7 19.49C18.69 19.61 18.65 19.72 18.59 19.82C18.52 19.92 18.43 20 18.33 20.06C16.4 21.17 14.22 21.75 12 21.75C9.77 21.75 7.59 21.17 5.66 20.06C5.56 20 5.47 19.92 5.4 19.82C5.34 19.72 5.3 19.61 5.29 19.49C5.12 17.96 5.48 16.41 6.31 15.11L6.31 15.11Z" fill="#FFFFFF" fill-opacity="1.000000" fill-rule="evenodd"/>
		<path id="Vector" d="M8.25 6.75C8.25 5.75 8.64 4.8 9.34 4.09C10.05 3.39 11 3 12 3C12.99 3 13.94 3.39 14.65 4.09C15.35 4.8 15.75 5.75 15.75 6.75C15.75 7.74 15.35 8.69 14.65 9.4C13.94 10.1 12.99 10.5 12 10.5C11 10.5 10.05 10.1 9.34 9.4C8.64 8.69 8.25 7.74 8.25 6.75ZM6.31 15.11C6.91 14.16 7.76 13.37 8.75 12.82C9.75 12.28 10.86 11.99 12 12C12.94 11.99 13.88 12.19 14.75 12.58C15.62 12.97 16.39 13.53 17.03 14.24C17.66 14.95 18.14 15.78 18.43 16.69C18.72 17.59 18.81 18.55 18.7 19.49C18.69 19.61 18.65 19.72 18.59 19.82C18.52 19.92 18.43 20 18.33 20.06C16.4 21.17 14.22 21.75 12 21.75C9.77 21.75 7.59 21.17 5.66 20.06C5.56 20 5.47 19.92 5.4 19.82C5.34 19.72 5.3 19.61 5.29 19.49C5.12 17.96 5.48 16.41 6.31 15.11L6.31 15.11Z" fill="#FFFFFF" fill-opacity="1.000000" fill-rule="evenodd"/>
		<path id="Vector" d="M5.08 14.25C4.09 15.77 3.63 17.58 3.77 19.38C3.17 19.29 2.58 19.15 2.01 18.94L1.89 18.9C1.79 18.87 1.7 18.8 1.63 18.72C1.57 18.63 1.53 18.53 1.52 18.42L1.51 18.3C1.47 17.79 1.53 17.29 1.69 16.81C1.85 16.33 2.1 15.89 2.43 15.51C2.77 15.14 3.17 14.83 3.63 14.61C4.08 14.4 4.57 14.27 5.08 14.25ZM20.22 19.38C20.36 17.58 19.9 15.77 18.91 14.25C19.42 14.27 19.91 14.4 20.36 14.61C20.82 14.83 21.22 15.14 21.56 15.51C21.89 15.89 22.14 16.33 22.3 16.81C22.46 17.29 22.52 17.79 22.48 18.3L22.47 18.42C22.46 18.53 22.42 18.63 22.36 18.71C22.29 18.8 22.2 18.87 22.1 18.9L21.99 18.94C21.42 19.14 20.83 19.29 20.22 19.38Z" fill="#FFFFFF" fill-opacity="1.000000" fill-rule="nonzero"/>
	</g>
</svg>
