<svg width="35.000000" height="35.000000" viewBox="0 0 35 35" fill="none" xmlns="http://www.w3.org/2000/svg" xmlns:xlink="http://www.w3.org/1999/xlink">
	<desc>
			Created with Pixso.
	</desc>
	<defs/>
	<linearGradient x1="17.500000" y1="0.000000" x2="17.500000" y2="35.000000" id="paint_linear_1_1690_0" gradientUnits="userSpaceOnUse">
		<stop stop-color="#37BBFE"/>
		<stop offset="1.000000" stop-color="#007DBB"/>
	</linearGradient>
	<path id="Vector" d="M35 17.5C35 27.16 27.16 35 17.5 35C7.83 35 0 27.16 0 17.5C0 7.83 7.83 0 17.5 0C27.16 0 35 7.83 35 17.5Z" fill="url(#paint_linear_1_1690_0)" fill-opacity="1.000000" fill-rule="nonzero"/>
	<path id="Vector" d="M26.23 10.26C26.38 9.25 25.43 8.45 24.53 8.85L6.7 16.68C6.06 16.96 6.11 17.93 6.77 18.14L10.45 19.31C11.15 19.54 11.91 19.42 12.52 19L20.81 13.27C21.06 13.1 21.34 13.45 21.12 13.67L15.16 19.83C14.58 20.42 14.69 21.43 15.39 21.87L22.07 26.06C22.82 26.53 23.78 26.06 23.92 25.15L26.23 10.26Z" fill="#FFFFFF" fill-opacity="1.000000" fill-rule="nonzero"/>
</svg>
