<svg width="35.000000" height="35.000000" viewBox="0 0 35 35" fill="none" xmlns="http://www.w3.org/2000/svg" xmlns:xlink="http://www.w3.org/1999/xlink">
	<desc>
			Created with Pixso.
	</desc>
	<defs/>
	<circle id="Ellipse 2166" cx="17.500000" cy="17.500000" r="17.500000" fill="#18264D" fill-opacity="1.000000"/>
	<path id="path1_fill" d="M19.42 14.38L19.42 11.85L24.75 11.85L24.75 8L10.25 8L10.25 11.85L15.58 11.85L15.58 14.38C11.25 14.59 8 15.52 8 16.64C8 17.75 11.25 18.68 15.58 18.9L15.58 27L19.43 27L19.43 18.9C23.75 18.68 27 17.75 27 16.64C26.99 15.52 23.74 14.59 19.42 14.38ZM19.43 18.21C19.32 18.22 18.76 18.26 17.52 18.26C16.52 18.26 15.83 18.23 15.58 18.21L15.58 18.22C11.76 18.04 8.9 17.31 8.9 16.45C8.9 15.59 11.76 14.86 15.58 14.68L15.58 17.49C15.83 17.51 16.55 17.56 17.54 17.56C18.72 17.56 19.32 17.51 19.43 17.49L19.43 14.67C23.25 14.85 26.1 15.58 26.1 16.44C26.09 17.3 23.24 18.03 19.43 18.21Z" fill="#FFFFFF" fill-opacity="1.000000" fill-rule="nonzero"/>
</svg>
