<svg width="35.000000" height="35.000000" viewBox="0 0 35 35" fill="none" xmlns="http://www.w3.org/2000/svg" xmlns:xlink="http://www.w3.org/1999/xlink">
	<desc>
			Created with Pixso.
	</desc>
	<defs/>
	<circle id="Ellipse 2166" cx="17.500000" cy="17.500000" r="17.500000" fill="#18264D" fill-opacity="1.000000"/>
	<path id="Vector" d="M11.03 8L24.06 8C24.53 8 24.99 8.06 25.47 8.29C26.05 8.56 26.35 8.98 26.57 9.29C26.58 9.32 26.6 9.34 26.61 9.37C26.87 9.82 27 10.3 27 10.82C27 11.32 26.88 11.86 26.61 12.33C26.61 12.34 26.61 12.34 26.61 12.34L18.37 26.49C18.19 26.8 17.85 27 17.49 27C17.13 26.99 16.8 26.8 16.62 26.49L8.53 12.37C8.53 12.36 8.53 12.36 8.53 12.36C8.34 12.05 8.05 11.58 8 10.97C7.96 10.41 8.08 9.85 8.37 9.36C8.65 8.88 9.07 8.49 9.58 8.25C10.12 8 10.68 8 11.03 8ZM16.48 10.02L11.03 10.02C10.67 10.02 10.53 10.04 10.43 10.08C10.3 10.15 10.19 10.25 10.12 10.38C10.04 10.51 10.01 10.66 10.02 10.81C10.03 10.89 10.06 10.99 10.27 11.33C10.27 11.34 10.28 11.35 10.28 11.35L16.48 22.19L16.48 10.02ZM18.51 10.02L18.51 22.24L24.85 11.34C24.93 11.21 24.97 11.02 24.97 10.82C24.97 10.67 24.94 10.53 24.87 10.39C24.79 10.29 24.75 10.23 24.71 10.19C24.68 10.15 24.65 10.14 24.61 10.12C24.46 10.05 24.31 10.02 24.06 10.02L18.51 10.02Z" fill="#FFFFFF" fill-opacity="1.000000" fill-rule="evenodd"/>
</svg>
