<svg width="21.000000" height="21.000000" viewBox="0 0 21 21" fill="none" xmlns="http://www.w3.org/2000/svg" xmlns:xlink="http://www.w3.org/1999/xlink">
	<desc>
			Created with Pixso.
	</desc>
	<defs>
		<clipPath id="clip264_897">
			<rect id="Outline / Money / Verified Check" rx="-0.437500" width="20.125000" height="20.125000" transform="translate(0.437500 0.437500)" fill="white" fill-opacity="0"/>
		</clipPath>
	</defs>
	<g clip-path="url(#clip264_897)">
		<path id="Vector (Stroke)" d="M9.26 2.02C10.04 1.65 10.95 1.65 11.73 2.02C12.06 2.19 12.37 2.45 12.8 2.82C12.82 2.83 12.85 2.85 12.87 2.87C13.08 3.05 13.14 3.11 13.21 3.15C13.38 3.26 13.57 3.34 13.77 3.38C13.85 3.4 13.93 3.4 14.2 3.43C14.23 3.43 14.26 3.43 14.29 3.43C14.86 3.48 15.26 3.51 15.61 3.64C16.43 3.92 17.07 4.56 17.35 5.38C17.48 5.73 17.51 6.13 17.56 6.7C17.56 6.73 17.56 6.76 17.56 6.79C17.59 7.06 17.59 7.14 17.61 7.22C17.65 7.42 17.73 7.61 17.84 7.78C17.88 7.85 17.94 7.91 18.12 8.12C18.14 8.14 18.16 8.17 18.17 8.19C18.54 8.62 18.8 8.93 18.97 9.26C19.34 10.04 19.34 10.95 18.97 11.73C18.8 12.06 18.54 12.37 18.17 12.8C18.16 12.82 18.14 12.85 18.12 12.87C17.94 13.08 17.88 13.14 17.84 13.21C17.73 13.38 17.65 13.57 17.61 13.77C17.59 13.85 17.59 13.93 17.56 14.2C17.56 14.23 17.56 14.26 17.56 14.29C17.51 14.86 17.48 15.26 17.35 15.61C17.07 16.43 16.43 17.07 15.61 17.35C15.26 17.48 14.86 17.51 14.29 17.56C14.26 17.56 14.23 17.56 14.2 17.56C13.93 17.59 13.85 17.59 13.77 17.61C13.57 17.65 13.38 17.73 13.21 17.84C13.14 17.88 13.08 17.94 12.87 18.12C12.85 18.14 12.82 18.16 12.8 18.17C12.37 18.54 12.06 18.8 11.73 18.97C10.95 19.34 10.04 19.34 9.26 18.97C8.93 18.8 8.62 18.54 8.19 18.17C8.17 18.16 8.14 18.14 8.12 18.12C7.91 17.94 7.85 17.88 7.78 17.84C7.61 17.73 7.42 17.65 7.22 17.61C7.14 17.59 7.06 17.59 6.79 17.56C6.76 17.56 6.73 17.56 6.7 17.56C6.13 17.51 5.73 17.48 5.38 17.35C4.56 17.07 3.92 16.43 3.64 15.61C3.51 15.26 3.48 14.86 3.43 14.29C3.43 14.26 3.43 14.23 3.43 14.2C3.4 13.93 3.4 13.85 3.38 13.77C3.34 13.57 3.26 13.38 3.15 13.21C3.11 13.14 3.05 13.08 2.87 12.87C2.85 12.85 2.83 12.82 2.82 12.8C2.45 12.37 2.19 12.06 2.02 11.73C1.65 10.95 1.65 10.04 2.02 9.26C2.19 8.93 2.45 8.62 2.82 8.19C2.83 8.17 2.85 8.14 2.87 8.12C3.05 7.91 3.11 7.85 3.15 7.78C3.26 7.61 3.34 7.42 3.38 7.22C3.4 7.14 3.4 7.06 3.43 6.79C3.43 6.76 3.43 6.73 3.43 6.7C3.48 6.13 3.51 5.73 3.64 5.38C3.92 4.56 4.56 3.92 5.38 3.64C5.73 3.51 6.13 3.48 6.7 3.43C6.73 3.43 6.76 3.43 6.79 3.43C7.06 3.4 7.14 3.4 7.22 3.38C7.42 3.34 7.61 3.26 7.78 3.15C7.85 3.11 7.91 3.05 8.12 2.87C8.14 2.85 8.17 2.83 8.19 2.82C8.62 2.45 8.93 2.19 9.26 2.02ZM11.16 3.21C10.74 3.01 10.25 3.01 9.83 3.21C9.67 3.29 9.5 3.43 8.97 3.88C8.97 3.88 8.96 3.89 8.95 3.9C8.78 4.04 8.65 4.15 8.51 4.24C8.2 4.45 7.85 4.6 7.48 4.67C7.31 4.71 7.15 4.72 6.92 4.74C6.91 4.74 6.9 4.74 6.89 4.74C6.2 4.79 5.98 4.82 5.81 4.88C5.38 5.03 5.03 5.38 4.88 5.81C4.82 5.98 4.79 6.2 4.74 6.89C4.74 6.9 4.74 6.91 4.74 6.92C4.72 7.15 4.71 7.31 4.67 7.48C4.6 7.85 4.45 8.2 4.24 8.51C4.15 8.65 4.04 8.78 3.9 8.95C3.89 8.96 3.88 8.97 3.88 8.97C3.43 9.5 3.29 9.67 3.21 9.83C3.01 10.25 3.01 10.74 3.21 11.16C3.29 11.32 3.43 11.49 3.88 12.02C3.88 12.02 3.89 12.03 3.9 12.04C4.04 12.21 4.15 12.34 4.24 12.48C4.45 12.79 4.6 13.14 4.67 13.51C4.71 13.68 4.72 13.84 4.74 14.07C4.74 14.08 4.74 14.09 4.74 14.1C4.79 14.79 4.82 15.01 4.88 15.18C5.03 15.61 5.38 15.96 5.81 16.11C5.98 16.17 6.2 16.2 6.89 16.25L6.92 16.25C7.15 16.27 7.31 16.28 7.48 16.32C7.85 16.39 8.2 16.54 8.51 16.75C8.65 16.84 8.78 16.95 8.95 17.09L8.97 17.11C9.5 17.56 9.67 17.7 9.83 17.78C10.25 17.98 10.74 17.98 11.16 17.78C11.32 17.7 11.49 17.56 12.02 17.11L12.04 17.09C12.21 16.95 12.34 16.84 12.48 16.75C12.79 16.54 13.14 16.39 13.51 16.32C13.68 16.28 13.84 16.27 14.07 16.25L14.1 16.25C14.79 16.2 15.01 16.17 15.18 16.11C15.61 15.96 15.96 15.61 16.11 15.18C16.17 15.01 16.2 14.79 16.25 14.1L16.25 14.07C16.27 13.84 16.28 13.68 16.32 13.51C16.39 13.14 16.54 12.79 16.75 12.48C16.84 12.34 16.95 12.21 17.09 12.04L17.11 12.02C17.56 11.49 17.7 11.32 17.78 11.16C17.98 10.74 17.98 10.25 17.78 9.83C17.7 9.67 17.56 9.5 17.11 8.97L17.09 8.95C16.95 8.78 16.84 8.65 16.75 8.51C16.54 8.2 16.39 7.85 16.32 7.48C16.28 7.31 16.27 7.15 16.25 6.92L16.25 6.89C16.2 6.2 16.17 5.98 16.11 5.81C15.96 5.38 15.61 5.03 15.18 4.88C15.01 4.82 14.79 4.79 14.1 4.74C14.09 4.74 14.08 4.74 14.07 4.74C13.84 4.72 13.68 4.71 13.51 4.67C13.14 4.6 12.79 4.45 12.48 4.24C12.34 4.15 12.21 4.04 12.04 3.9C12.03 3.89 12.02 3.88 12.02 3.88C11.49 3.43 11.32 3.29 11.16 3.21ZM14.03 7.83C14.29 8.09 14.29 8.51 14.03 8.77L9.64 13.16C9.39 13.41 8.97 13.41 8.71 13.16L6.96 11.4C6.7 11.14 6.7 10.73 6.96 10.47C7.21 10.21 7.63 10.21 7.89 10.47L9.18 11.76L13.1 7.83C13.36 7.58 13.78 7.58 14.03 7.83Z" fill="#FFFFFF" fill-opacity="1.000000" fill-rule="evenodd"/>
	</g>
</svg>
