<svg width="41.500000" height="35.000000" viewBox="0 0 41.5 35" fill="none" xmlns="http://www.w3.org/2000/svg" xmlns:xlink="http://www.w3.org/1999/xlink">
	<desc>
			Created with Pixso.
	</desc>
	<defs/>
	<path id="Vector" d="M38.27 28.55C38.35 28.26 38.13 27.99 37.83 28L32.78 28C27.11 28 22.11 23.51 22.11 17.5C22.11 11.48 27.11 7 32.78 7L37.83 7C38.13 7 38.35 6.73 38.27 6.44C37.87 5.01 37.24 3.8 36.21 2.78C34.72 1.28 32.82 0.62 30.47 0.3C28.19 0 25.28 0 21.61 0L17.38 0C13.71 0 10.8 0 8.52 0.3C6.17 0.62 4.27 1.28 2.78 2.78C1.28 4.27 0.62 6.17 0.3 8.52C-6.11e-5 10.8 -6.11e-5 13.71 0 17.38L0 17.61C-6.11e-5 21.28 -6.11e-5 24.19 0.3 26.47C0.62 28.82 1.28 30.72 2.78 32.21C4.27 33.71 6.17 34.37 8.52 34.69C10.8 35 13.71 35 17.38 35L21.61 35C25.28 35 28.19 35 30.47 34.69C32.82 34.37 34.72 33.71 36.21 32.21C37.24 31.19 37.87 29.98 38.27 28.55ZM6 9.5C6 8.67 6.67 8 7.5 8L15.5 8C16.32 8 17 8.67 17 9.5C17 10.32 16.32 11 15.5 11L7.5 11C6.67 11 6 10.32 6 9.5ZM37.83 10C37.96 10 38.08 10 38.2 10C39.88 10.11 41.36 11.42 41.49 13.26C41.5 13.38 41.5 13.51 41.5 13.63L41.5 13.63L41.5 13.66L41.5 21.33L41.5 21.36L41.5 21.36C41.5 21.48 41.5 21.61 41.49 21.73C41.36 23.57 39.88 24.88 38.2 24.99C38.08 25 37.96 25 37.83 25L37.83 25L37.8 25L32.78 25C28.65 25 25.11 21.74 25.11 17.5C25.11 13.25 28.65 10 32.78 10L37.8 10L37.83 10ZM34.27 17.5C34.27 18.6 33.4 19.5 32.34 19.5C31.27 19.5 30.41 18.6 30.41 17.5C30.41 16.39 31.27 15.5 32.34 15.5C33.4 15.5 34.27 16.39 34.27 17.5Z" fill="#FFFFFF" fill-opacity="1.000000" fill-rule="evenodd"/>
</svg>
