<svg width="26.000000" height="24.000000" viewBox="0 0 26 24" fill="none" xmlns="http://www.w3.org/2000/svg" xmlns:xlink="http://www.w3.org/1999/xlink">
	<desc>
			Created with Pixso.
	</desc>
	<defs>
		<clipPath id="clip120_683">
			<rect id="wallet" rx="-0.187500" width="25.625000" height="23.625000" transform="translate(0.187500 0.187500)" fill="white" fill-opacity="0"/>
		</clipPath>
	</defs>
	<rect id="wallet" rx="-0.187500" width="25.625000" height="23.625000" transform="translate(0.187500 0.187500)" fill="#FFFFFF" fill-opacity="0"/>
	<g clip-path="url(#clip120_683)">
		<path id="Vector" d="M3.18 5L3.18 17.75C3.18 18.61 3.55 19.43 4.19 20.04C4.84 20.65 5.72 21 6.64 21L19.39 21C20.3 21 21.18 20.65 21.83 20.04C22.48 19.43 22.84 18.61 22.84 17.75L22.84 9.25C22.84 8.51 22.58 7.8 22.09 7.23C21.61 6.66 20.94 6.25 20.18 6.08L20.18 5.25C20.18 4.95 20.12 4.66 20 4.38C19.88 4.11 19.7 3.86 19.48 3.65C19.26 3.45 19 3.28 18.71 3.17C18.42 3.05 18.11 3 17.79 3L5.57 3C4.99 3 4.42 3.2 3.98 3.57C3.54 3.94 3.26 4.44 3.2 5L3.18 5ZM5.57 6C5.36 6 5.16 5.92 5.01 5.78C4.86 5.63 4.78 5.44 4.78 5.25C4.78 5.05 4.86 4.86 5.01 4.71C5.16 4.57 5.36 4.5 5.57 4.5L17.79 4.5C18 4.5 18.21 4.57 18.36 4.71C18.5 4.86 18.59 5.05 18.59 5.25L18.59 6L5.57 6ZM17.26 13L19.39 13C19.6 13 19.8 13.07 19.95 13.21C20.1 13.36 20.18 13.55 20.18 13.75C20.18 13.94 20.1 14.13 19.95 14.28C19.8 14.42 19.6 14.5 19.39 14.5L17.26 14.5C17.05 14.5 16.85 14.42 16.7 14.28C16.55 14.13 16.46 13.94 16.46 13.75C16.46 13.55 16.55 13.36 16.7 13.21C16.85 13.07 17.05 13 17.26 13Z" fill="#FFFFFF" fill-opacity="1.000000" fill-rule="nonzero"/>
	</g>
</svg>
