<svg width="29.647461" height="29.647461" viewBox="0 0 29.6475 29.6475" fill="none" xmlns="http://www.w3.org/2000/svg" xmlns:xlink="http://www.w3.org/1999/xlink">
	<desc>
			Created with Pixso.
	</desc>
	<defs>
		<clipPath id="clip264_719">
			<rect id="Bold / Money / Wallet" rx="-1.560387" width="26.526571" height="26.526571" transform="translate(1.560387 1.560387)" fill="white" fill-opacity="0"/>
		</clipPath>
	</defs>
	<g clip-path="url(#clip264_719)">
		<path id="Vector" d="M26.11 21.34C26.16 21.16 26.02 20.99 25.84 21L22.72 21C19.21 21 16.13 18.23 16.13 14.51C16.13 10.79 19.21 8.02 22.72 8.02L25.84 8.02C26.02 8.03 26.16 7.86 26.11 7.68C25.86 6.8 25.47 6.05 24.84 5.42C23.91 4.5 22.74 4.08 21.29 3.89C19.88 3.7 18.09 3.7 15.82 3.7L13.21 3.7C10.94 3.7 9.14 3.7 7.73 3.89C6.28 4.08 5.11 4.5 4.18 5.42C3.26 6.34 2.85 7.52 2.66 8.96C2.47 10.37 2.47 12.17 2.47 14.44L2.47 14.58C2.47 16.85 2.47 18.65 2.66 20.06C2.85 21.5 3.26 22.68 4.18 23.6C5.11 24.52 6.28 24.93 7.73 25.13C9.14 25.32 10.94 25.32 13.21 25.32L15.82 25.32C18.09 25.32 19.88 25.32 21.29 25.13C22.74 24.93 23.91 24.52 24.84 23.6C25.47 22.97 25.86 22.22 26.11 21.34ZM6.17 9.57C6.17 9.06 6.59 8.64 7.1 8.64L12.04 8.64C12.55 8.64 12.97 9.06 12.97 9.57C12.97 10.08 12.55 10.5 12.04 10.5L7.1 10.5C6.59 10.5 6.17 10.08 6.17 9.57ZM25.84 9.88C25.92 9.88 25.99 9.88 26.06 9.88C27.1 9.95 28.02 10.76 28.09 11.89C28.1 11.97 28.1 12.05 28.1 12.12L28.1 12.14L28.1 16.88L28.1 16.9C28.1 16.97 28.1 17.05 28.09 17.13C28.02 18.26 27.1 19.07 26.06 19.14C25.99 19.14 25.92 19.14 25.84 19.14L25.84 19.14L25.82 19.14L22.72 19.14C20.16 19.14 17.98 17.13 17.98 14.51C17.98 11.89 20.16 9.88 22.72 9.88L25.82 9.88L25.84 9.88ZM23.63 14.51C23.63 15.19 23.1 15.75 22.44 15.75C21.79 15.75 21.25 15.19 21.25 14.51C21.25 13.83 21.79 13.27 22.44 13.27C23.1 13.27 23.63 13.83 23.63 14.51Z" fill="#FFFFFF" fill-opacity="1.000000" fill-rule="evenodd"/>
	</g>
</svg>
