<svg width="44.000000" height="44.000000" viewBox="0 0 44 44" fill="none" xmlns="http://www.w3.org/2000/svg" xmlns:xlink="http://www.w3.org/1999/xlink">
	<desc>
			Created with Pixso.
	</desc>
	<defs>
		<clipPath id="clip264_903">
			<rect id="material-symbols:warning-outline" rx="-0.392857" width="43.214287" height="43.214287" transform="translate(0.392857 0.392857)" fill="white" fill-opacity="0"/>
		</clipPath>
	</defs>
	<rect id="material-symbols:warning-outline" rx="-0.392857" width="43.214287" height="43.214287" transform="translate(0.392857 0.392857)" fill="#FFFFFF" fill-opacity="0"/>
	<g clip-path="url(#clip264_903)">
		<path id="Vector" d="M1.68 37.15L20.48 4.67C20.78 4.15 21.54 4.15 21.84 4.67L40.65 37.15C40.95 37.67 40.57 38.33 39.97 38.33L2.36 38.33C1.75 38.33 1.37 37.67 1.68 37.15ZM8.68 34.66L33.64 34.66C34.24 34.66 34.62 34.01 34.32 33.48L21.84 12C21.54 11.48 20.79 11.48 20.48 12L8.01 33.48C7.7 34.01 8.08 34.66 8.68 34.66ZM21.16 32.83C21.68 32.83 22.12 32.65 22.47 32.3C22.82 31.95 23 31.51 23 31C22.99 30.48 22.82 30.04 22.47 29.69C22.12 29.34 21.68 29.16 21.16 29.16C20.64 29.16 20.21 29.34 19.86 29.69C19.51 30.04 19.33 30.48 19.33 31C19.33 31.51 19.5 31.95 19.86 32.3C20.21 32.66 20.64 32.83 21.16 32.83ZM20.11 27.33L22.21 27.33C22.64 27.33 23 26.98 23 26.54L23 18.95C23 18.51 22.64 18.16 22.21 18.16L20.11 18.16C19.68 18.16 19.33 18.51 19.33 18.95L19.33 26.54C19.33 26.98 19.68 27.33 20.11 27.33Z" fill="#FF535A" fill-opacity="1.000000" fill-rule="nonzero"/>
		<path id="Vector" d="M22.47 32.3C22.12 32.65 21.68 32.83 21.16 32.83C20.64 32.83 20.21 32.66 19.86 32.3C19.5 31.95 19.33 31.51 19.33 31C19.33 30.48 19.51 30.04 19.86 29.69C20.21 29.34 20.64 29.16 21.16 29.16C21.68 29.16 22.12 29.34 22.47 29.69C22.82 30.04 22.99 30.48 23 31C23 31.51 22.82 31.95 22.47 32.3ZM22.21 27.33L20.11 27.33C19.68 27.33 19.33 26.98 19.33 26.54L19.33 18.95C19.33 18.51 19.68 18.16 20.11 18.16L22.21 18.16C22.64 18.16 23 18.51 23 18.95L23 26.54C23 26.98 22.64 27.33 22.21 27.33Z" fill="#FFFFFF" fill-opacity="1.000000" fill-rule="evenodd"/>
	</g>
</svg>
